<?xml version="1.0" encoding="utf-8"?>
<!-- Generator: Adobe Illustrator 16.0.0, SVG Export Plug-In . SVG Version: 6.00 Build 0)  -->
<!DOCTYPE svg PUBLIC "-//W3C//DTD SVG 1.1//EN" "http://www.w3.org/Graphics/SVG/1.1/DTD/svg11.dtd">
<svg version="1.1" id="Layer_1" xmlns="http://www.w3.org/2000/svg" xmlns:xlink="http://www.w3.org/1999/xlink" x="0px" y="0px"
	 width="1364px" height="592px" viewBox="0 0 1364 592" enable-background="new 0 0 1364 592" xml:space="preserve">
<g>
	<path fill-rule="evenodd" clip-rule="evenodd" fill="#FEFEFE" d="M1,592.926c452.437,0,904.874,0,1357.311,0
		c6.519,0,6.519,0,6.519-6.508c0-195.139,0-390.278,0-585.418c0.308,0.218,1.043-0.506,1.011,0.5
		c-0.043,1.332-0.011,2.666-0.011,3.999c0,194.642-0.013,389.284,0.094,583.926c0.002,3.749-0.845,4.594-4.594,4.593
		c-451.943-0.099-903.887-0.092-1355.83-0.154C4.036,593.864,2.109,595.018,1,592.926z"/>
	<path fill-rule="evenodd" clip-rule="evenodd" fill="#F8F8F9" d="M279.701,377.295c-0.092,3.897-3.529,7.265-7.417,7.267
		c-4.111,0.002-7.547-3.645-7.336-7.785c0.203-3.985,3.618-7.109,7.605-6.956C276.529,369.972,279.793,373.386,279.701,377.295z"/>
	<path fill-rule="evenodd" clip-rule="evenodd" fill="#F9F9F9" d="M369.606,207.924c-0.072,3.936-3.425,7.19-7.409,7.191
		c-3.997,0.001-7.272-3.233-7.321-7.23c-0.051-4.166,3.502-7.663,7.605-7.485C366.411,200.57,369.678,204.021,369.606,207.924z"/>
	<path fill-rule="evenodd" clip-rule="evenodd" fill="#F5F5F6" d="M550.994,17.632c4.008-0.016,7.318,3.184,7.419,7.169
		c0.104,4.165-3.374,7.616-7.569,7.511c-4.009-0.1-7.187-3.398-7.144-7.413C543.744,20.881,546.989,17.648,550.994,17.632z"/>
	<path fill-rule="evenodd" clip-rule="evenodd" fill="#F8F9F9" d="M865.773,242.087c-3.989,0.01-7.33-3.227-7.409-7.177
		c-0.081-4.114,3.491-7.663,7.594-7.541c3.949,0.118,7.15,3.482,7.113,7.476C873.034,238.853,869.784,242.077,865.773,242.087z"/>
	<path fill-rule="evenodd" clip-rule="evenodd" fill="#F8F8F9" d="M1153.421,66.915c0.015,3.936-3.269,7.266-7.241,7.348
		c-4.004,0.082-7.327-3.063-7.471-7.07c-0.15-4.192,3.262-7.68,7.44-7.604C1150.124,59.66,1153.406,62.967,1153.421,66.915z"/>
	<path fill-rule="evenodd" clip-rule="evenodd" fill="#F4F4F5" d="M647.14,561.61c4.013,0.104,7.199,3.402,7.158,7.411
		c-0.042,4.204-3.594,7.525-7.788,7.282c-3.982-0.231-7.072-3.662-6.903-7.664C639.775,564.635,643.128,561.506,647.14,561.61z"/>
	<path fill-rule="evenodd" clip-rule="evenodd" fill="#F9F9F9" d="M47.704,519.368c-3.945,0.134-7.39-3.031-7.612-6.993
		c-0.219-3.921,2.926-7.429,6.889-7.68c4.182-0.265,7.806,3.053,7.871,7.205C54.914,515.826,51.651,519.234,47.704,519.368z"/>
	<path fill-rule="evenodd" clip-rule="evenodd" fill="#EEEFF0" d="M298.136,469.925c-0.199,3.006-1.756,4.924-4.89,4.955
		c-2.902,0.028-4.627-1.743-4.727-4.604c-0.109-3.128,1.669-5.028,4.791-5.034C296.151,465.238,297.784,466.976,298.136,469.925z"/>
	<path fill-rule="evenodd" clip-rule="evenodd" fill="#EFF0F1" d="M739.858,162.564c2.967,0.225,4.795,1.775,4.828,4.708
		c0.032,2.886-1.629,4.757-4.605,4.845c-3.213,0.095-5.064-1.743-5.032-4.906C735.079,164.252,736.984,162.78,739.858,162.564z"/>
	<path fill-rule="evenodd" clip-rule="evenodd" fill="#F3F3F4" d="M492.752,375.295c2.933,0.429,4.638,2.024,4.54,4.985
		c-0.097,2.92-1.789,4.723-4.735,4.668c-3.169-0.059-4.916-1.975-4.744-5.158C487.974,376.799,489.958,375.498,492.752,375.295z"/>
	<path fill-rule="evenodd" clip-rule="evenodd" fill="#F2F3F3" d="M1071.384,284.266c-0.259,2.792-1.648,4.715-4.645,4.757
		c-3.186,0.044-5.009-1.78-4.946-4.962c0.058-2.973,1.935-4.581,4.833-4.572C1069.585,279.498,1071.125,281.274,1071.384,284.266z"
		/>
	<path fill-rule="evenodd" clip-rule="evenodd" fill="#F8F8F9" d="M1284.168,409.018c-0.464,2.877-2.144,4.467-5.07,4.283
		c-2.928-0.184-4.58-1.969-4.436-4.896c0.156-3.185,2.116-4.83,5.271-4.546C1282.906,404.126,1284.134,406.138,1284.168,409.018z"/>
	<path fill-rule="evenodd" clip-rule="evenodd" fill="#F9F9FA" d="M1230.232,552.392c-0.206,2.879-1.632,4.699-4.604,4.786
		c-2.907,0.085-4.771-1.446-4.924-4.401c-0.165-3.191,1.604-5.013,4.775-5.045C1228.445,547.702,1229.936,549.506,1230.232,552.392z
		"/>
	<path fill-rule="evenodd" clip-rule="evenodd" fill="#E9EAEB" d="M1035.007,382.737c-0.215,2.929-1.604,4.679-4.265,4.773
		c-2.667,0.095-4.41-1.579-4.512-4.201c-0.104-2.639,1.528-4.365,4.208-4.486C1033.166,378.7,1034.538,380.428,1035.007,382.737z"/>
	<path fill-rule="evenodd" clip-rule="evenodd" fill="#EAEBEC" d="M846.145,520.846c-0.205,2.702-1.578,4.448-4.338,4.464
		c-2.736,0.015-4.385-1.66-4.371-4.386c0.014-2.469,1.531-4.077,4.037-4.218C844.239,516.551,845.729,518.148,846.145,520.846z"/>
	<path fill-rule="evenodd" clip-rule="evenodd" fill="#EAEBEC" d="M1262.882,68.316c-2.641-0.303-4.301-1.729-4.252-4.496
		c0.044-2.497,1.558-4.073,4.051-4.186c2.741-0.124,4.475,1.444,4.567,4.168C1267.343,66.548,1265.648,68.007,1262.882,68.316z"/>
	<path fill-rule="evenodd" clip-rule="evenodd" fill="#DFE1E2" d="M704.865,285.455c-0.254,2.562-1.499,4.007-3.835,4.074
		c-2.312,0.066-3.897-1.213-3.993-3.567c-0.105-2.567,1.371-4.097,3.976-4.09C703.416,281.877,704.477,283.493,704.865,285.455z"/>
	<path fill-rule="evenodd" clip-rule="evenodd" fill="#E0E2E3" d="M144.758,316.553c-2.29-0.305-3.82-1.488-3.755-3.868
		c0.07-2.579,1.654-4.011,4.23-3.82c2.344,0.173,3.611,1.761,3.495,4.058C148.608,315.273,147.054,316.409,144.758,316.553z"/>
	<path fill-rule="evenodd" clip-rule="evenodd" fill="#E2E4E5" d="M1217.833,228.173c-2.364-0.264-3.741-1.603-3.731-3.899
		c0.009-2.323,1.43-3.744,3.784-3.748c2.584-0.005,4.096,1.469,3.936,4.068C1221.677,226.918,1220.125,228.068,1217.833,228.173z"/>
	<path fill-rule="evenodd" clip-rule="evenodd" fill="#EFF0F0" d="M1118.985,523.269c-2.434-0.222-3.784-1.578-3.739-3.837
		c0.044-2.233,1.382-3.709,3.751-3.69c2.568,0.021,4.005,1.48,3.862,4.039C1122.729,522.12,1121.168,523.181,1118.985,523.269z"/>
	<path fill-rule="evenodd" clip-rule="evenodd" fill="#E5E6E7" d="M61.877,200.174c-0.203,2.272-1.297,3.827-3.653,3.941
		c-2.579,0.125-4.125-1.329-4.125-3.882c0-2.333,1.494-3.643,3.821-3.675C60.281,196.525,61.516,197.914,61.877,200.174z"/>
	<path fill-rule="evenodd" clip-rule="evenodd" fill="#E6E8E8" d="M824.699,402.82c-0.396,2.276-1.681,3.619-4.025,3.537
		c-2.321-0.082-3.777-1.435-3.732-3.759c0.05-2.558,1.646-3.957,4.206-3.787C823.505,398.969,824.533,400.576,824.699,402.82z"/>
	<path fill-rule="evenodd" clip-rule="evenodd" fill="#F0F1F1" d="M358.524,56.283c-0.213,2.326-1.263,3.851-3.644,3.91
		c-2.558,0.063-4.055-1.323-3.996-3.888c0.053-2.319,1.508-3.574,3.818-3.588C357.08,52.702,358.202,54.147,358.524,56.283z"/>
	<path fill-rule="evenodd" clip-rule="evenodd" fill="#ECEDEE" d="M250.655,197.352c-0.317,2.22-1.401,3.76-3.783,3.751
		c-2.567-0.009-4.009-1.492-3.898-4.036c0.102-2.337,1.639-3.529,3.936-3.479C249.281,193.64,250.388,195.123,250.655,197.352z"/>
	<path fill-rule="evenodd" clip-rule="evenodd" fill="#F4F4F5" d="M62.105,34.669c2.52,0.122,4.024,1.233,4.105,3.639
		c0.079,2.361-1.213,3.81-3.59,3.906c-2.366,0.096-3.795-1.199-3.905-3.583C58.604,36.233,59.985,34.993,62.105,34.669z"/>
	<path fill-rule="evenodd" clip-rule="evenodd" fill="#DBDDDE" d="M973.81,71.002c2.005,0.36,3.343,1.468,3.214,3.667
		c-0.114,1.915-1.36,3.106-3.244,3.158c-2.149,0.06-3.557-1.282-3.571-3.364C970.193,72.375,971.597,71.182,973.81,71.002z"/>
	<path fill-rule="evenodd" clip-rule="evenodd" fill="#DDE0E1" d="M540.561,217.205c-2.147-0.24-3.501-1.435-3.42-3.543
		c0.081-2.076,1.459-3.401,3.607-3.289c1.887,0.099,3.076,1.371,3.136,3.254C543.953,215.786,542.65,216.934,540.561,217.205z"/>
	<path fill-rule="evenodd" clip-rule="evenodd" fill="#DDDFE0" d="M170.333,458.546c-2.071-0.31-3.373-1.461-3.314-3.615
		c0.052-1.899,1.23-3.113,3.138-3.21c2.169-0.109,3.516,1.163,3.591,3.264C173.824,457.117,172.442,458.264,170.333,458.546z"/>
	<path fill-rule="evenodd" clip-rule="evenodd" fill="#DBDDDE" d="M388.996,540.016c2.19,0.18,3.626,1.336,3.632,3.431
		c0.006,2.083-1.375,3.439-3.533,3.398c-1.882-0.036-3.148-1.188-3.278-3.114C385.669,541.531,386.999,540.415,388.996,540.016z"/>
	<path fill-rule="evenodd" clip-rule="evenodd" fill="#E0E2E3" d="M750.448,46.999c2.052,0.368,3.46,1.504,3.302,3.656
		c-0.152,2.081-1.542,3.362-3.695,3.183c-1.88-0.156-3.084-1.449-3.082-3.323C746.974,48.383,748.344,47.252,750.448,46.999z"/>
	<path fill-rule="evenodd" clip-rule="evenodd" fill="#DADCDD" d="M597.417,106.922c2.184,0.332,3.521,1.484,3.465,3.565
		c-0.056,2.06-1.414,3.398-3.478,3.345c-2.046-0.054-3.375-1.425-3.341-3.492C594.098,108.255,595.53,107.205,597.417,106.922z"/>
	<path fill-rule="evenodd" clip-rule="evenodd" fill="#D8DADC" d="M1107.073,199.241c-2.237-0.352-3.497-1.512-3.356-3.698
		c0.122-1.912,1.347-3.116,3.237-3.151c2.146-0.041,3.505,1.289,3.518,3.397C1110.484,197.922,1109.055,199.017,1107.073,199.241z"
		/>
	<path fill-rule="evenodd" clip-rule="evenodd" fill="#D2D5D6" d="M925.88,352.741c2.022,0.287,3.285,1.454,3.196,3.569
		c-0.089,2.103-1.452,3.391-3.522,3.299c-2.043-0.092-3.379-1.449-3.29-3.553C922.353,353.975,923.712,352.872,925.88,352.741z"/>
	<path fill-rule="evenodd" clip-rule="evenodd" fill="#D4D7D8" d="M612.289,476.084c-0.121,1.705-0.982,2.832-2.727,2.877
		c-1.715,0.043-2.813-0.956-2.895-2.689c-0.094-1.958,0.966-3.186,2.942-3.128C611.324,473.193,612.208,474.351,612.289,476.084z"/>
</g>
<circle fill="#FFFFFF" cx="41.567" cy="377.328" r="5.97"/>
<circle fill="#FFFFFF" cx="135.597" cy="562.403" r="2.985"/>
<circle fill="#FFFFFF" cx="1292.694" cy="289.649" r="6.351"/>
<circle fill="#FFFFFF" cx="1346.792" cy="554.193" r="5.224"/>
<circle fill="#FFFFFF" cx="1296.426" cy="146.731" r="3.731"/>
<circle fill="#FFFFFF" cx="967.687" cy="554.193" r="5.224"/>
<circle fill="#FFFFFF" cx="434.851" cy="461.656" r="2.239"/>
<circle fill="#FFFFFF" cx="411.907" cy="292.825" r="3.175"/>
<circle fill="#FFFFFF" cx="852.761" cy="49.716" r="2.239"/>
<circle fill="#FFFFFF" cx="1146.044" cy="416.135" r="5.97"/>
<circle fill="#FFFFFF" cx="1333.358" cy="493" r="2.239"/>
</svg>
