<?xml version="1.0"?>
<svg xmlns="http://www.w3.org/2000/svg" height="512px" viewBox="0 -55 512.00055 512" width="512px"><path d="m503.464844 0h-494.929688c-4.714844 0-8.535156 3.820312-8.535156 8.535156v341.332032c0 4.710937 3.820312 8.535156 8.535156 8.535156h366.929688v34.132812c0 4.710938 3.820312 8.53125 8.535156 8.53125h68.265625c4.714844 0 8.535156-3.820312 8.535156-8.53125v-34.132812h42.667969c4.710938 0 8.53125-3.820313 8.53125-8.535156v-341.332032c0-4.714844-3.820312-8.535156-8.535156-8.535156zm-486.398438 17.066406h409.601563v51.199219h-409.601563zm426.667969 366.933594h-51.199219v-204.800781h51.199219zm-45.03125-221.867188 19.429687-33.996093 19.429688 33.996093zm96.230469 179.199219h-34.132813v-170.664062c-.035156-1.472657-.464843-2.910157-1.238281-4.164063l.109375-.070312-34.132813-59.734375c-2.699218-4.089844-8.203124-5.21875-12.292968-2.515625-1 .660156-1.859375 1.515625-2.519532 2.515625l-34.132812 59.734375.109375.070312c-.773437 1.253906-1.203125 2.6875-1.238281 4.164063v170.664062h-358.398438v-256h477.867188zm0-273.066406h-51.199219v-51.199219h51.199219zm0 0" fill="#FFFFFF"/><path d="m59.734375 221.867188h273.066406c4.710938 0 8.53125-3.820313 8.53125-8.535157v-85.332031c0-4.710938-3.820312-8.535156-8.53125-8.535156h-273.066406c-4.714844 0-8.535156 3.820312-8.535156 8.535156v85.332031c0 4.714844 3.820312 8.535157 8.535156 8.535157zm8.53125-85.332032h256v68.265625h-256zm0 0" fill="#FFFFFF"/><path d="m110.933594 247.464844h230.398437v17.066406h-230.398437zm0 0" fill="#FFFFFF"/><path d="m59.734375 298.667969h281.597656v17.066406h-281.597656zm0 0" fill="#FFFFFF"/><path d="m76.800781 247.464844h17.066407v17.066406h-17.066407zm0 0" fill="#FFFFFF"/><path d="m460.800781 34.132812h17.066407v17.066407h-17.066407zm0 0" fill="#FFFFFF"/></svg>
