<?xml version="1.0" encoding="utf-8"?>
<!-- Generator: Adobe Illustrator 16.0.0, SVG Export Plug-In . SVG Version: 6.00 Build 0)  -->
<!DOCTYPE svg PUBLIC "-//W3C//DTD SVG 1.1//EN" "http://www.w3.org/Graphics/SVG/1.1/DTD/svg11.dtd">
<svg version="1.1" id="Layer_1" xmlns="http://www.w3.org/2000/svg" xmlns:xlink="http://www.w3.org/1999/xlink" x="0px" y="0px"
	 width="768px" height="768px" viewBox="0 0 768 768" enable-background="new 0 0 768 768" xml:space="preserve">
<g>
	<g>
		<g>
			<path fill="none" stroke="#25AA11" stroke-width="3" stroke-miterlimit="10" stroke-dasharray="15.046,15.046" d="M20.857,390
				c0-242.16,189.099-368.755,368.754-368.755"/>
			<path fill="none" stroke="#25AA11" stroke-width="3" stroke-miterlimit="10" stroke-dasharray="15.046,15.046" d="
				M380.295,21.245c242.159,0,368.756,189.098,368.756,368.751"/>
		</g>
		<g>
			<path fill="none" stroke="#25AA11" stroke-width="3" stroke-miterlimit="10" stroke-dasharray="15.046,15.046" d="M748.392,380
				c0,242.156-189.098,368.755-368.754,368.755"/>
			<path fill="none" stroke="#25AA11" stroke-width="3" stroke-miterlimit="10" stroke-dasharray="15.046,15.046" d="
				M388.953,748.755C146.794,748.755,20.198,559.653,20.198,380"/>
		</g>
	</g>
	
		<rect x="535.986" y="43.819" transform="matrix(-0.9258 -0.3779 0.3779 -0.9258 1034.9174 315.5923)" fill="#25AA11" width="24.874" height="24.876"/>
	
		<rect x="33.351" y="506.508" transform="matrix(-0.3437 -0.9391 0.9391 -0.3437 -425.8098 740.3011)" fill="#25AA11" width="24.879" height="24.88"/>
	
		<rect x="667.176" y="588.289" transform="matrix(-0.7849 -0.6197 0.6197 -0.7849 840.7831 1493.3513)" fill="#25AA11" width="24.878" height="24.879"/>
</g>
</svg>
