<?xml version="1.0" encoding="utf-8"?>
<!-- Generator: Adobe Illustrator 16.0.0, SVG Export Plug-In . SVG Version: 6.00 Build 0)  -->
<!DOCTYPE svg PUBLIC "-//W3C//DTD SVG 1.1//EN" "http://www.w3.org/Graphics/SVG/1.1/DTD/svg11.dtd">
<svg version="1.1" id="Layer_1" xmlns="http://www.w3.org/2000/svg" xmlns:xlink="http://www.w3.org/1999/xlink" x="0px" y="0px"
	 width="1024px" height="768px" viewBox="0 0 1024 768" enable-background="new 0 0 1024 768" xml:space="preserve">
<g>
	<g>
		<path fill="none" stroke="#48CAD8" stroke-width="3" stroke-miterlimit="10" stroke-dasharray="15.046,15.046" d="M126.857,389
			c0-242.16,189.098-368.755,368.754-368.755"/>
		<path fill="none" stroke="#48CAD8" stroke-width="3" stroke-miterlimit="10" stroke-dasharray="15.046,15.046" d="M486.295,20.245
			c242.16,0,368.756,189.098,368.756,368.752"/>
	</g>
	<g>
		<path fill="none" stroke="#48CAD8" stroke-width="3" stroke-miterlimit="10" stroke-dasharray="15.046,15.046" d="M854.392,379
			c0,242.157-189.098,368.755-368.754,368.755"/>
		<path fill="none" stroke="#48CAD8" stroke-width="3" stroke-miterlimit="10" stroke-dasharray="15.046,15.046" d="
			M494.954,747.755c-242.16,0-368.756-189.101-368.756-368.755"/>
	</g>
</g>
<rect x="641.545" y="43.423" transform="matrix(-0.9366 -0.3503 0.3503 -0.9366 1246.9504 337.2979)" fill="#48CAD8" width="24.878" height="24.877"/>
<rect x="114.418" y="415.424" transform="matrix(-0.9923 0.1237 -0.1237 -0.9923 305.6607 836.7482)" fill="#48CAD8" width="24.879" height="24.877"/>
<rect x="761.908" y="608.411" transform="matrix(-0.9401 0.341 -0.341 -0.9401 1713.9802 940.4672)" fill="#48CAD8" width="24.878" height="24.877"/>
</svg>
