<?xml version="1.0" encoding="utf-8"?>
<!-- Generator: Adobe Illustrator 16.0.0, SVG Export Plug-In . SVG Version: 6.00 Build 0)  -->
<!DOCTYPE svg PUBLIC "-//W3C//DTD SVG 1.1//EN" "http://www.w3.org/Graphics/SVG/1.1/DTD/svg11.dtd">
<svg version="1.1" id="Layer_1" xmlns="http://www.w3.org/2000/svg" xmlns:xlink="http://www.w3.org/1999/xlink" x="0px" y="0px"
	 width="768px" height="768px" viewBox="0 0 768 768" enable-background="new 0 0 768 768" xml:space="preserve">
<g>
	<g>
		<g>
			<path fill="none" stroke="#48CAD8" stroke-width="3" stroke-miterlimit="10" stroke-dasharray="15.046,15.046" d="M25.857,390
				c0-242.16,189.098-368.755,368.754-368.755"/>
			<path fill="none" stroke="#48CAD8" stroke-width="3" stroke-miterlimit="10" stroke-dasharray="15.046,15.046" d="
				M385.295,21.245c242.16,0,368.756,189.098,368.756,368.751"/>
		</g>
		<g>
			<path fill="none" stroke="#48CAD8" stroke-width="3" stroke-miterlimit="10" stroke-dasharray="15.046,15.046" d="M753.392,380
				c0,242.156-189.098,368.755-368.754,368.755"/>
			<path fill="none" stroke="#48CAD8" stroke-width="3" stroke-miterlimit="10" stroke-dasharray="15.046,15.046" d="
				M393.954,748.755c-242.16,0-368.756-189.102-368.756-368.755"/>
		</g>
	</g>
	
		<rect x="540.559" y="44.449" transform="matrix(0.9366 0.3503 -0.3503 0.9366 54.9741 -190.1249)" fill="#48CAD8" width="24.876" height="24.876"/>
	
		<rect x="13.414" y="416.434" transform="matrix(0.9923 -0.1237 0.1237 0.9923 -52.8638 6.494)" fill="#48CAD8" width="24.879" height="24.877"/>
	
		<rect x="660.867" y="609.419" transform="matrix(0.9401 -0.341 0.341 0.9401 -171.694 266.8605)" fill="#48CAD8" width="24.879" height="24.879"/>
</g>
</svg>
