<?xml version="1.0" encoding="utf-8"?>
<!-- Generator: Adobe Illustrator 16.0.0, SVG Export Plug-In . SVG Version: 6.00 Build 0)  -->
<!DOCTYPE svg PUBLIC "-//W3C//DTD SVG 1.1//EN" "http://www.w3.org/Graphics/SVG/1.1/DTD/svg11.dtd">
<svg version="1.1" id="Layer_1" xmlns="http://www.w3.org/2000/svg" xmlns:xlink="http://www.w3.org/1999/xlink" x="0px" y="0px"
	 width="768px" height="768px" viewBox="0 0 768 768" enable-background="new 0 0 768 768" xml:space="preserve">
<g>
	<g>
		<g>
			<path fill="none" stroke="#1AE2DD" stroke-width="3" stroke-miterlimit="10" stroke-dasharray="15.046,15.046" d="M25.857,390
				c0-242.16,189.099-368.755,368.754-368.755"/>
			<path fill="none" stroke="#1AE2DD" stroke-width="3" stroke-miterlimit="10" stroke-dasharray="15.046,15.046" d="
				M385.295,21.245c242.159,0,368.756,189.098,368.756,368.751"/>
		</g>
		<g>
			<path fill="none" stroke="#1AE2DD" stroke-width="3" stroke-miterlimit="10" stroke-dasharray="15.046,15.046" d="M753.392,380
				c0,242.156-189.098,368.755-368.754,368.755"/>
			<path fill="none" stroke="#1AE2DD" stroke-width="3" stroke-miterlimit="10" stroke-dasharray="15.046,15.046" d="
				M393.953,748.755C151.794,748.755,25.198,559.653,25.198,380"/>
		</g>
	</g>
	
		<rect x="706.518" y="215.426" transform="matrix(-0.4318 -0.902 0.902 -0.4318 823.8431 974.7382)" fill="#1AE2DD" width="24.878" height="24.876"/>
	
		<rect x="13.759" y="377.56" transform="matrix(-1 0.0016 -0.0016 -1 53.0159 779.9554)" fill="#1AE2DD" width="24.879" height="24.878"/>
	
		<rect x="479.5" y="719.872" transform="matrix(-0.247 -0.969 0.969 -0.247 -96.1885 1389.8743)" fill="#1AE2DD" width="24.879" height="24.879"/>
</g>
</svg>
