<?xml version="1.0" encoding="utf-8"?>
<!-- Generator: Adobe Illustrator 16.0.0, SVG Export Plug-In . SVG Version: 6.00 Build 0)  -->
<!DOCTYPE svg PUBLIC "-//W3C//DTD SVG 1.1//EN" "http://www.w3.org/Graphics/SVG/1.1/DTD/svg11.dtd">
<svg version="1.1" id="Layer_1" xmlns="http://www.w3.org/2000/svg" xmlns:xlink="http://www.w3.org/1999/xlink" x="0px" y="0px"
	 width="1024px" height="768px" viewBox="0 0 1024 768" enable-background="new 0 0 1024 768" xml:space="preserve">
<g>
	<g>
		<path fill="none" stroke="#25AA11" stroke-width="3" stroke-miterlimit="10" stroke-dasharray="15.046,15.046" d="M126.857,389
			c0-242.16,189.098-368.755,368.754-368.755"/>
		<path fill="none" stroke="#25AA11" stroke-width="3" stroke-miterlimit="10" stroke-dasharray="15.046,15.046" d="M486.295,20.245
			c242.16,0,368.756,189.098,368.756,368.752"/>
	</g>
	<g>
		<path fill="none" stroke="#25AA11" stroke-width="3" stroke-miterlimit="10" stroke-dasharray="15.046,15.046" d="M854.392,379
			c0,242.157-189.098,368.755-368.754,368.755"/>
		<path fill="none" stroke="#25AA11" stroke-width="3" stroke-miterlimit="10" stroke-dasharray="15.046,15.046" d="
			M494.954,747.755c-242.16,0-368.756-189.101-368.756-368.755"/>
	</g>
</g>
<rect x="641.992" y="42.792" transform="matrix(-0.9258 -0.3779 0.3779 -0.9258 1239.4463 353.7046)" fill="#25AA11" width="24.877" height="24.878"/>
<rect x="138.361" y="505.526" transform="matrix(-0.2594 -0.9658 0.9658 -0.2594 -310.3309 797.9408)" fill="#25AA11" width="24.878" height="24.878"/>
<rect x="774.978" y="589.281" transform="matrix(-0.74 -0.6726 0.6726 -0.74 965.3618 1576.6198)" fill="#25AA11" width="24.878" height="24.879"/>
</svg>
