<?xml version="1.0" encoding="utf-8"?>
<!-- Generator: Adobe Illustrator 16.0.0, SVG Export Plug-In . SVG Version: 6.00 Build 0)  -->
<!DOCTYPE svg PUBLIC "-//W3C//DTD SVG 1.1//EN" "http://www.w3.org/Graphics/SVG/1.1/DTD/svg11.dtd">
<svg version="1.1" id="Layer_1" xmlns="http://www.w3.org/2000/svg" xmlns:xlink="http://www.w3.org/1999/xlink" x="0px" y="0px"
	 width="768px" height="768px" viewBox="0 0 768 768" enable-background="new 0 0 768 768" xml:space="preserve">
<g>
	<g>
		<g>
			<path fill="none" stroke="#25AA11" stroke-width="3" stroke-miterlimit="10" stroke-dasharray="15.046,15.046" d="M20.857,390
				c0-242.16,189.098-368.755,368.754-368.755"/>
			<path fill="none" stroke="#25AA11" stroke-width="3" stroke-miterlimit="10" stroke-dasharray="15.046,15.046" d="
				M380.295,21.245c242.16,0,368.756,189.098,368.756,368.751"/>
		</g>
		<g>
			<path fill="none" stroke="#25AA11" stroke-width="3" stroke-miterlimit="10" stroke-dasharray="15.046,15.046" d="M748.392,380
				c0,242.156-189.098,368.755-368.754,368.755"/>
			<path fill="none" stroke="#25AA11" stroke-width="3" stroke-miterlimit="10" stroke-dasharray="15.046,15.046" d="
				M388.954,748.755c-242.16,0-368.756-189.102-368.756-368.755"/>
		</g>
	</g>
	
		<rect x="536.009" y="43.824" transform="matrix(0.9258 0.3779 -0.3779 0.9258 61.9326 -203.0893)" fill="#25AA11" width="24.875" height="24.877"/>
	
		<rect x="32.363" y="506.498" transform="matrix(0.2594 0.9658 -0.9658 0.2594 534.3579 341.0657)" fill="#25AA11" width="24.879" height="24.878"/>
	
		<rect x="668.952" y="590.29" transform="matrix(0.74 0.6726 -0.6726 0.74 582.5323 -301.5951)" fill="#25AA11" width="24.878" height="24.879"/>
</g>
</svg>
