<?xml version="1.0" encoding="utf-8"?>
<!-- Generator: Adobe Illustrator 16.0.0, SVG Export Plug-In . SVG Version: 6.00 Build 0)  -->
<!DOCTYPE svg PUBLIC "-//W3C//DTD SVG 1.1//EN" "http://www.w3.org/Graphics/SVG/1.1/DTD/svg11.dtd">
<svg version="1.1" id="Layer_1" xmlns="http://www.w3.org/2000/svg" xmlns:xlink="http://www.w3.org/1999/xlink" x="0px" y="0px"
	 width="768px" height="768px" viewBox="0 0 768 768" enable-background="new 0 0 768 768" xml:space="preserve">
<g>
	<g>
		<g>
			<path fill="none" stroke="#f44336" stroke-width="3" stroke-miterlimit="10" stroke-dasharray="15.046,15.046" d="M26.857,390
				c0-242.16,189.099-368.755,368.754-368.755"/>
			<path fill="none" stroke="#f44336" stroke-width="3" stroke-miterlimit="10" stroke-dasharray="15.046,15.046" d="
				M386.295,21.245c242.159,0,368.756,189.098,368.756,368.751"/>
		</g>
		<g>
			<path fill="none" stroke="#f44336" stroke-width="3" stroke-miterlimit="10" stroke-dasharray="15.046,15.046" d="M754.392,380
				c0,242.156-189.098,368.755-368.754,368.755"/>
			<path fill="none" stroke="#f44336" stroke-width="3" stroke-miterlimit="10" stroke-dasharray="15.046,15.046" d="
				M394.953,748.755C152.794,748.755,26.198,559.653,26.198,380"/>
		</g>
	</g>
	
		<rect x="678.002" y="161.817" transform="matrix(-0.6477 -0.7619 0.7619 -0.6477 1004.8679 813.1682)" fill="#f44336" width="24.878" height="24.879"/>
	
		<rect x="16.452" y="324.809" transform="matrix(0.1387 -0.9903 0.9903 0.1387 -309.1043 319.098)" fill="#f44336" width="24.879" height="24.878"/>
	<polygon fill="#f44336" points="624.818,648.693 640.932,669.647 621.975,685.762 605.862,664.808 	"/>
</g>
</svg>
