<svg xmlns="http://www.w3.org/2000/svg" xmlns:xlink="http://www.w3.org/1999/xlink" viewBox="0 0 2758.43 2485.55"><defs><style>.cls-1{fill:none;}.cls-2{fill:#82ceec;}.cls-3{clip-path:url(#clip-path);}.cls-4{fill:#2db476;}.cls-5{fill:#fdfdc8;}.cls-6{opacity:0.2;}.cls-7{fill:#04151C;}.cls-8{clip-path:url(#clip-path-2);}</style><clipPath id="clip-path"><circle class="cls-1" cx="1215.69" cy="1298.94" r="1121.26"/></clipPath><clipPath id="clip-path-2"><circle class="cls-1" cx="1215.55" cy="1307.33" r="1121.26"/></clipPath></defs><title>Asset 1</title><g id="Layer_2" data-name="Layer 2"><g id="Layer_2-2" data-name="Layer 2"><circle class="cls-2" cx="1215.69" cy="1298.94" r="1121.26"/><g class="cls-3"><path class="cls-4" d="M271.84,1604.16c-15.95-19-.79-52.57,10.52-90.87,18.69-63.29,2-55.07,21-142.09a831,831,0,0,1,49.06-152.41,820.76,820.76,0,0,1,60-113.36,152.25,152.25,0,0,0,8.61-44.51s4-100.65-124.13-178.32c-8.27-5-17.08-9.1-26.83-7.37-14.37,2.56-15.15,15-37.87,32.88A158.89,158.89,0,0,1,193.68,930a175,175,0,0,1-23.8,7.89c-31.91-9.93-53.81-6.35-68.32-.73C-14.13,982-35.25,1302,60.31,1520.84c23.5,53.82,70.5,139.19,119.21,209.43,31,44.71,77.2,104.2,94.94,127,10.92,14.06,22.26,28.47,37.74,46.42,23.87,27.69,48.88,56.71,70,73.31,43.88,34.47,95.61,34.72,167.08,35.06,76.91.36,54.89-16.14,176.94-27.15,7.78-.71,68.59-6.11,72.32-27,1.34-7.47-5-14.47-1.18-22,4.22-8.21,17.17-10.1,28.08-10.32,25.58,75.4,56.18,131.91,79.62,169.71,34.52,55.68,54.73,72.73,61.47,78.18,34.22,27.68,71.24,36.8,143.87,53.92,98.26,23.17,134.21,18.72,172.53,54.59,19.78,18.51,13,22.27,35.31,42.14,23.1,20.55,45.89,30.3,124.33,59.38h0c10.69-14.93,11.62-16.34,12.23-18.28,4.18-13.18-13-29-21.89-38.46-22.5-24-12.06-29.2-44.38-87.91-22.64-41.13-27.65-38.37-52.93-83-18.66-33-29.32-51.82-34.65-70.82-4.67-16.67-16.9-75,48.47-163.39l-85.74-160.57a489.87,489.87,0,0,1-98.23,16.3c-87.88,5.37-129.28-16.52-215.93-1.58-22.65,3.9-44.24,9.6-67.14,21.23-31.76,16.13-53.09,37.09-63.51,47.47-23.31,23.24-18.4,26.22-37.29,43.86-28.21,26.34-58.68,37.91-81.2,46.22-35.84,13.22-33.26,4.89-73.84,19.39-30.58,10.93-43.4,19.72-75.69,26.11-26.43,5.22-38.49,3.42-43.92,2.36-12.08-2.36-18.39-6.36-47.54-23.87-47.32-28.42-47.44-27.94-52.4-32.42-10.58-9.56-28.22-25.91-35.9-53.13a99.93,99.93,0,0,1-3.61-26.23c-.17-34.71,18.08-60.87,27-71.93l-90-158.14C293.74,1616.35,280.09,1614,271.84,1604.16Z"/><path class="cls-4" d="M1079.08,561.85c1.27,5.13,7.11,15,13.11,22.58a92.72,92.72,0,0,0,13.06,13.46s17.13,14,89.62,28.21c3.24-1,27.49-7.91,35.37,2.5,5.91,7.79-.3,21.45-4.93,31.1-32.3,67.28-52.52,73.8-62.4,109.08-9.25,33,4.73,40.52-8.69,84.16-8.08,26.28-14.39,27.59-15.32,42.67-2.15,35,30.43,49.46,57.79,91.6,41.1,63.27,9.42,94.94,46.75,131.83,27.47,27.14,66.18,31.3,123.15,37.42,33.33,3.58,58.84,6.32,90.28-.46,87.91-18.94,104.24-86.83,163-81.46,20.9,1.91,17.47,10.38,81.67,44.06,16.77,8.8,29.55,14.8,106,47.15,124.6,52.67,134.1,55.09,153.6,71,9.67,7.9,28.52,24.61,71.2,95.28,83.61,138.45,94.2,211.68,119.2,209.43,24.33-2.2,48.75-74.6,36.83-134.14-6.32-31.56-17.74-34-21.24-67.13-3.39-32.25,5.4-49.1,18.48-106.72,7.59-33.39,13.9-68.54,15.39-82.32,1.86-17.13,3.91-71.77-149.05-232C1953.83,816.26,1871,752.9,1834.57,726c-50.3-37.1-94.74-65.54-128-85.62q-7.61-18.32-15.19-36.62c-.9-1.83-5.57-11.75-1.18-22,4.68-10.93,17.86-17.84,25.64-14.6,5.23,2.18,5.78,8,9.73,17.1,4.93,11.33,11.2,18.14,23.74,31.76,8.66,9.41,21.56,23.43,41.42,33,23.13,11.16,29.56,3.68,53.65,14.73,20.5,9.4,33.49,22.9,39,28.73,26.45,28,23.65,49.45,42.61,55,14.72,4.29,29.18-4.92,34.78-8.48,13.64-8.68,26.68-25.37,26.3-43.26-.31-14.62-9.35-19.2-35.9-53.13-23.38-29.89-35-45.13-34-59.84,1.22-18.11,14.53-20.51,15.32-42.67.57-16-5.84-28.85-10.92-39.06-5.69-11.44-10.58-21.28-21.3-27.48-11.61-6.72-16.32-1.21-26.83-7.37-13-7.62-17.39-22.85-21.89-38.46-2.15-7.47-5.82-20.66-4.21-37.22,2.3-23.5,13.31-33.82,15.33-42.67,9.93-43.64-169.64-178.33-383.4-166.57-56.19,3.1-122,.93-173.92,42.41-14.78,11.8-41.63,33.88-43.72,67.33-1.94,31,17.56,68.08,46.22,81.2,17.19,7.87,32.68,4.81,45.1,19.6,1.29,1.52,10.92,13.31,10.33,28.07-1.38,33.8-55.65,65.63-104.42,65.09-18.72-.2-18.44-5-37.81-6.77C1146.53,471.31,1072.53,535.45,1079.08,561.85Z"/><path class="cls-5" d="M340.94,597.2c6.8,10.84,23.3,37.14,55.43,47.67,27.17,8.91,51.47,1.94,61.61-1.11,31.81-9.58,50.45-30.37,57.4-38.33,28-32,16.57-49.49,38-72.53,10.52-11.34,22.82-17.39,106.19-32.15,92.22-16.32,97.18-12.47,111.05-23.6,38.79-31.11,13.92-72.42,55.7-110.92,26-24,67.75-37.49,103.76-36.42,21,.62,39.06,6.18,75,2.56,33.27-3.34,40.7-10.39,43.33-13.34,18-20.11,2.12-60.78-4.14-76.87-24-61.53-74.64-113.2-117.49-136.83-167.32-92.28-503.61,83.82-583,297.9C336.78,421.93,297.47,527.88,340.94,597.2Z"/><path class="cls-5" d="M1566.44,2372.49c-17.79-3.85-27.1.79-31.1-4.94-7.12-10.16,12.06-39.36,34.25-59.11,25.19-22.4,34.3-14.89,57.41-38.33,12.39-12.57,43.84-55.36,33-41.42h0c-3.33-29.48-1.78-32.94-1.78-32.94,7.08-15.79,37.77-3.38,76.28-15.12,44.49-13.57,45.25-42.86,89.75-51.09,27-5,27.6,5.64,50.63-.52,44.16-11.82,53.45-54,83-52.93,15.76.55,31.08,13.13,36.56,24.46,40.29,83.25-338,330.72-387.22,294C1603.15,2391.44,1589.34,2377.44,1566.44,2372.49Z"/></g><g class="cls-6"><path class="cls-7" d="M1207.4,176.13a2358.88,2358.88,0,0,1,250.95,273.33c105.12,134.36,273.94,384.92,352.94,944.35,21.31,150.86-61.76,638.72-108,913.28,387,75,783.22-173,856.74-231.72,440.09-351.62,102.9-1234.76-568.61-1640.22-300.82-181.64-599.3-267.78-784-259Z"/><circle class="cls-1" cx="1215.55" cy="1307.33" r="1121.26"/><g class="cls-8"><path class="cls-1" d="M225.89,1239.6c-7.75-23.53,18.82-49.1,43.56-80.44,40.9-51.79,22.34-50.38,72.33-124.09A831.93,831.93,0,0,1,444,911.84a820.43,820.43,0,0,1,97.83-82.92,151.93,151.93,0,0,0,24.55-38.12s41.13-91.95-48.9-211.7c-5.81-7.73-12.47-14.8-22.16-16.81-14.29-3-19.64,8.28-47.39,16.43a158.8,158.8,0,0,1-43.84,6,172.47,172.47,0,0,1-25-1.53c-25.93-21.08-47.59-25.9-63.15-26.08C191.84,555.71,53.23,844.88,60.53,1083.59c1.79,58.69,13.67,155.42,32.76,238.73,12.15,53,32.91,125.45,40.88,153.24,4.9,17.11,10.08,34.71,17.76,57.13,11.86,34.58,24.29,70.82,37.73,94.1,27.92,48.31,75.85,67.78,142.06,94.67,71.26,29,57,5.44,174.34,40.61,7.49,2.25,65.95,19.84,77.19,1.82,4-6.43.71-15.3,7.07-20.82,7-6.06,19.7-3,29.9.86-4.29,79.5,3.09,143.34,10.79,187.14,11.34,64.53,23.75,87.87,28,95.44,21.47,38.42,52.43,60.66,113.48,103.56,82.6,58,117.62,67.29,139.86,114.84,11.47,24.54,3.74,25.5,17.09,52.26,13.81,27.67,31.33,45.19,93.33,101.36h0c15.48-9.89,16.87-10.85,18.16-12.42,8.78-10.68-1.3-31.75-6-43.85-12-30.65-.33-31.59-8.5-98.11-5.72-46.6-11.39-45.9-18.24-96.77-5.06-37.55-7.95-59-5.82-78.63,1.86-17.21,12.21-75.92,105.75-133.64l-19.86-180.94a490.75,490.75,0,0,1-97.25-21.4c-83.57-27.7-113.86-63.42-199.85-81.79-22.47-4.8-44.63-7.53-70.21-5.26-35.49,3.16-63.08,14.68-76.62,20.45-30.28,12.9-26.82,17.49-50.92,26.84-36,14-68.57,13.36-92.57,12.7-38.18-1.06-32.7-7.83-75.76-9.46-32.45-1.23-47.61,2.16-80-3.92-26.48-5-37-11.14-41.65-14.14-10.34-6.69-14.7-12.75-35.25-39.84-33.36-44-33.65-43.58-36.58-49.58C225.34,1576,215,1554.21,218,1526.1a100.05,100.05,0,0,1,6.4-25.7c12.76-32.28,39.43-49.77,51.79-56.74l-24.74-180.27C241.69,1259.06,229.9,1251.78,225.89,1239.6Z"/><path class="cls-1" d="M1362.89,572.31c-.72,5.23,1,16.55,3.78,25.84a92.77,92.77,0,0,0,7.11,17.34s10.68,19.41,72.7,59.52c3.36.31,28.46,2.88,31.9,15.48,2.59,9.43-8.26,19.8-16.14,27-55,50.44-76.21,49-98.5,78.05-20.85,27.18-10.67,39.37-39.36,74.89-17.28,21.39-23.62,20.26-30.1,33.92-15,31.65,9.85,57.22,19.58,106.51,14.62,74-26.57,91.64-5.64,139.77,15.4,35.41,49.79,53.67,100.4,80.53,29.61,15.72,52.27,27.75,84,33.16,88.65,15.11,129.06-41.84,181.61-15,18.69,9.55,12.35,16.12,59.42,71.27,12.3,14.41,21.92,24.73,80.91,83.21,96.06,95.24,104,101,116.16,123.05,6,10.92,17.33,33.45,30.66,114.93,26.12,159.61,8.7,231.53,32.76,238.73,23.39,7,73-51.11,84.07-110.81,5.87-31.65-3.83-38.14,5.26-70.22,8.84-31.2,23.27-43.57,56.84-92.18,19.46-28.18,38.4-58.46,44.91-70.7,8.09-15.21,30.32-65.17-52.06-270.83-52.87-132-106.16-221.61-130-260.14-32.89-53.15-63.57-96.07-86.93-127.06l-.48-39.65c-.15-2-.79-13,7.07-20.82,8.42-8.4,23.22-9.91,29.24-4,4,4,2.38,9.58,2.67,19.49.36,12.35,3.65,21,10.22,38.3,4.54,12,11.31,29.78,26.17,46.05,17.33,19,26.08,14.42,44.33,33.63,15.53,16.35,22.56,33.72,25.5,41.18,14.14,35.84,3.56,54.69,19.11,66.87,12.07,9.46,28.92,6.29,35.44,5.06,15.89-3,34.21-13.62,40.51-30.37,5.14-13.69-1.54-21.3-13.57-62.67-10.59-36.44-15.75-54.93-9.36-68.21,7.88-16.36,21.12-13.64,30.1-33.92,6.47-14.61,5.31-28.95,4.4-40.31-1-12.74-1.91-23.69-9.56-33.44-8.28-10.55-14.69-7.18-22.16-16.81-9.23-11.91-7.64-27.68-6-43.85.78-7.73,2.28-21.34,9.94-36.11,10.87-21,24.93-26.44,30.1-33.91,25.45-36.81-91.14-228.63-293.94-297.22-53.31-18-113.56-44.5-177.21-25.32-18.12,5.46-51.25,16-65.64,46.23-13.32,28-9,69.74,12.71,92.58,13,13.69,28.54,16.62,34.58,35,.62,1.9,5.18,16.42-.86,29.9-13.85,30.86-76.07,40.22-121.14,21.59-17.3-7.15-15.26-11.48-32.58-20.35C1459.18,513.35,1366.63,545.36,1362.89,572.31Z"/><path class="cls-1" d="M664.56,330.58c2.28,12.59,7.81,43.14,33.72,64.87,21.91,18.37,47.06,20.94,57.61,21.88C789,420.27,814,407.9,823.43,403.1c37.87-19.32,33.79-39.78,62.19-53.21,14-6.62,27.66-7.65,110.53,9.65,91.68,19.15,94.86,24.57,111.87,19.4,47.58-14.45,39.85-62.05,93-82.25,33.09-12.59,76.83-9.6,109.86,4.78,19.3,8.41,34,20.27,68.68,30.29,32.13,9.27,41.65,5.49,45.19,3.73,24.15-12,24.58-55.63,24.75-72.89.64-66-27.19-132.84-58.17-170.72-121-147.89-498.65-109.5-652,59.68C725.89,166.33,650,250.06,664.56,330.58Z"/><path class="cls-1" d="M1141.84,2434.31c-15.08-10.19-25.44-9.34-27-16.14-2.82-12.09,25.83-32.06,53.78-42.13,31.71-11.43,37.38-1.07,67.55-14.23,16.18-7.07,61.29-35.08,46-26.18h0c7.88-28.6,10.61-31.23,10.61-31.23,12.44-12,36.32,10.9,76.42,14.33,46.35,4,58-23,102.32-14,26.92,5.41,23.52,15.5,47.19,18.34,45.39,5.46,69.69-30.21,96.78-18.24,14.42,6.37,24,23.74,24.83,36.3,6.43,92.27-436.71,181.3-468.78,128.86C1168.87,2465.56,1161.26,2447.43,1141.84,2434.31Z"/></g></g></g></g></svg>
