<?xml version="1.0" encoding="utf-8"?>
<!-- Generator: Adobe Illustrator 16.0.0, SVG Export Plug-In . SVG Version: 6.00 Build 0)  -->
<!DOCTYPE svg PUBLIC "-//W3C//DTD SVG 1.1//EN" "http://www.w3.org/Graphics/SVG/1.1/DTD/svg11.dtd">
<svg version="1.1" id="Layer_1" xmlns="http://www.w3.org/2000/svg" xmlns:xlink="http://www.w3.org/1999/xlink" x="0px" y="0px"
	 width="600px" height="612px" viewBox="382 -10 600 612" enable-background="new 382 -10 600 612" xml:space="preserve">
<title>Asset 1</title>
<g id="Layer_2">
	<g id="Layer_2-2">
		<circle cx="701.401" cy="310.603" r="267.058"/>
		<g>
			<path d="M476.599,383.299c-3.799-4.525-0.188-12.521,2.506-21.644c4.451-15.074,0.477-13.116,5.002-33.843
				c2.717-12.447,6.63-24.604,11.685-36.3c4.052-9.359,8.83-18.387,14.291-27c1.208-3.411,1.899-6.984,2.051-10.601
				c0,0,0.952-23.973-29.565-42.472c-1.97-1.191-4.068-2.168-6.39-1.756c-3.423,0.609-3.608,3.573-9.02,7.831
				c-2.799,2.158-5.888,3.913-9.174,5.214c-1.842,0.762-3.737,1.39-5.668,1.879c-7.601-2.364-12.816-1.512-16.272-0.174
				c-27.555,10.681-32.585,86.896-9.825,139.02c5.597,12.818,16.792,33.151,28.393,49.881c7.383,10.648,18.387,24.818,22.612,30.248
				c2.601,3.35,5.302,6.781,8.989,11.057c5.685,6.595,11.642,13.507,16.672,17.461c10.451,8.21,22.772,8.27,39.795,8.351
				c18.318,0.085,13.073-3.845,42.143-6.467c1.854-0.169,16.337-1.455,17.226-6.431c0.318-1.779-1.191-3.446-0.281-5.24
				c1.005-1.955,4.089-2.405,6.688-2.458c6.093,17.959,13.381,31.418,18.964,40.421c8.222,13.262,13.035,17.323,14.641,18.621
				c8.15,6.593,16.968,8.765,34.267,12.842c23.403,5.52,31.966,4.459,41.093,13.003c4.711,4.408,3.096,5.304,8.41,10.036
				c5.502,4.895,10.93,7.217,29.612,14.144l0,0c2.546-3.557,2.768-3.893,2.913-4.354c0.995-3.139-3.097-6.907-5.214-9.16
				c-5.359-5.716-2.873-6.955-10.57-20.938c-5.393-9.797-6.586-9.14-12.606-19.77c-4.444-7.859-6.983-12.342-8.253-16.867
				c-1.112-3.971-4.025-17.863,11.544-38.916l-20.421-38.244c-7.646,2.086-15.486,3.387-23.396,3.883
				c-20.931,1.279-30.791-3.935-51.43-0.377c-5.395,0.93-10.536,2.287-15.991,5.057c-7.564,3.842-12.645,8.834-15.126,11.307
				c-5.552,5.535-4.383,6.245-8.882,10.446c-6.719,6.273-13.977,9.029-19.34,11.009c-8.536,3.148-7.922,1.164-17.587,4.618
				c-7.283,2.604-10.337,4.696-18.027,6.219c-6.295,1.243-9.168,0.814-10.461,0.562c-2.877-0.562-4.38-1.515-11.323-5.685
				c-11.271-6.77-11.299-6.655-12.48-7.722c-2.52-2.277-6.721-6.172-8.551-12.654c-0.562-2.035-0.852-4.137-0.859-6.248
				c-0.04-8.267,4.307-14.497,6.431-17.132l-21.436-37.665C481.814,386.202,478.563,385.643,476.599,383.299z"/>
			<path d="M668.864,135.045c0.303,1.222,1.693,3.572,3.123,5.378c0.926,1.171,1.968,2.245,3.11,3.206c0,0,4.08,3.334,21.346,6.719
				c0.771-0.238,6.547-1.884,8.424,0.596c1.408,1.855-0.071,5.108-1.174,7.407c-7.693,16.024-12.51,17.577-14.862,25.98
				c-2.203,7.859,1.126,9.65-2.07,20.045c-1.924,6.259-3.427,6.571-3.648,10.163c-0.513,8.336,7.248,11.78,13.765,21.816
				c9.788,15.069,2.243,22.612,11.134,31.399c6.543,6.464,15.763,7.455,29.332,8.912c7.938,0.853,14.015,1.506,21.503-0.109
				c20.938-4.511,24.827-20.681,38.822-19.402c4.978,0.455,4.161,2.473,19.452,10.494c3.994,2.097,7.038,3.525,25.247,11.23
				c29.676,12.545,31.939,13.121,36.583,16.91c2.304,1.882,6.793,5.861,16.958,22.693c19.914,32.976,22.437,50.417,28.391,49.882
				c5.795-0.524,11.611-17.769,8.772-31.949c-1.505-7.517-4.226-8.098-5.059-15.989c-0.808-7.681,1.286-11.694,4.401-25.418
				c1.808-7.952,3.311-16.324,3.666-19.606c0.442-4.08,0.931-17.094-35.501-55.257c-23.37-24.506-43.098-39.597-51.774-46.004
				c-11.98-8.836-22.565-15.61-30.486-20.393c-1.209-2.909-2.415-5.816-3.618-8.722c-0.215-0.437-1.327-2.799-0.281-5.24
				c1.114-2.604,4.254-4.249,6.106-3.478c1.246,0.52,1.377,1.905,2.318,4.073c1.174,2.698,2.667,4.32,5.654,7.564
				c2.063,2.241,5.135,5.58,9.865,7.859c5.509,2.658,7.04,0.877,12.777,3.509c4.883,2.238,7.977,5.454,9.289,6.843
				c6.3,6.669,5.633,11.777,10.148,13.1c3.507,1.021,6.95-1.172,8.284-2.02c3.249-2.067,6.354-6.043,6.265-10.304
				c-0.074-3.482-2.228-4.573-8.551-12.654c-5.568-7.119-8.336-10.749-8.099-14.253c0.291-4.313,3.461-4.885,3.649-10.163
				c0.136-3.811-1.391-6.871-2.602-9.303c-1.354-2.725-2.52-5.068-5.072-6.545c-2.766-1.601-3.888-0.288-6.391-1.756
				c-3.097-1.814-4.142-5.442-5.214-9.16c-0.512-1.779-1.386-4.921-1.003-8.865c0.548-5.597,3.17-8.055,3.651-10.163
				c2.365-10.394-40.404-42.474-91.316-39.673c-13.384,0.738-29.058,0.222-41.424,10.102c-3.521,2.811-9.915,8.069-10.413,16.036
				c-0.462,7.384,4.183,16.215,11.008,19.34c4.095,1.875,7.784,1.146,10.742,4.668c0.308,0.362,2.601,3.171,2.461,6.686
				c-0.329,8.051-13.255,15.632-24.871,15.503c-4.459-0.047-4.392-1.19-9.005-1.612C684.93,113.481,667.305,128.757,668.864,135.045
				z"/>
			<path d="M493.057,143.465c1.62,2.581,5.55,8.846,13.202,11.354c6.472,2.122,12.259,0.462,14.674-0.265
				c7.577-2.281,12.017-7.233,13.672-9.129c6.669-7.622,3.946-11.787,9.051-17.275c2.505-2.7,5.435-4.142,25.292-7.657
				c21.965-3.887,23.146-2.97,26.449-5.621c9.239-7.409,3.315-17.248,13.267-26.418c6.192-5.717,16.137-8.93,24.713-8.675
				c5.002,0.147,9.304,1.472,17.863,0.609c7.924-0.795,9.694-2.475,10.32-3.177c4.287-4.79,0.505-14.477-0.986-18.309
				c-5.716-14.655-17.777-26.962-27.983-32.59C592.738,4.334,512.642,46.277,493.733,97.266
				C492.066,101.719,482.703,126.954,493.057,143.465z"/>
			<path d="M784.942,566.297c-4.237-0.917-6.455,0.188-7.407-1.177c-1.696-2.42,2.872-9.375,8.157-14.078
				c6-5.336,8.17-3.547,13.674-9.13c2.951-2.994,10.441-13.186,7.86-9.865l0,0c-0.794-7.021-0.425-7.846-0.425-7.846
				c1.687-3.761,8.996-0.805,18.169-3.601c10.596-3.232,10.777-10.209,21.376-12.169c6.431-1.19,6.573,1.344,12.059-0.124
				c10.519-2.815,12.73-12.861,19.769-12.606c3.754,0.131,7.402,3.127,8.708,5.826c9.597,19.828-80.504,78.77-92.227,70.023
				C793.686,570.811,790.396,567.476,784.942,566.297z"/>
		</g>
		<g>
			<g>
				<path fill="none" d="M817.537,550.72c11.013-65.394,30.798-181.59,25.723-217.521
					c-18.816-133.243-59.025-192.921-84.063-224.922c-17.474-22.331-36.629-43.288-57.268-62.727c-0.188,0-0.373-0.007-0.562-0.007
					c-147.492,0-267.058,119.565-267.058,267.058s119.565,267.058,267.058,267.058c43.051,0,83.713-10.201,119.727-28.295
					C819.908,551.158,818.723,550.949,817.537,550.72z"/>
				<path d="M759.197,108.277c25.037,32.001,65.246,91.679,84.063,224.922c5.075,35.932-14.71,152.128-25.723,217.521
					c1.186,0.229,2.371,0.438,3.558,0.644c87.369-43.897,147.332-134.321,147.332-238.763
					c0-147.304-119.264-266.747-266.497-267.051C722.568,64.989,741.724,85.946,759.197,108.277z"/>
			</g>
			<g>
				<path d="M465.654,296.469c-1.846-5.604,4.482-11.694,10.375-19.158c9.741-12.336,5.321-12,17.228-29.556
					c7.153-10.544,15.306-20.372,24.347-29.351c7.239-7.181,15.03-13.784,23.301-19.75c2.392-2.717,4.363-5.777,5.847-9.079
					c0,0,9.797-21.9-11.646-50.422c-1.384-1.841-2.97-3.524-5.278-4.004c-3.403-0.714-4.678,1.973-11.287,3.913
					c-3.396,0.962-6.911,1.442-10.441,1.43c-1.991,0.022-3.981-0.099-5.954-0.364c-6.177-5.021-11.335-6.169-15.041-6.212
					c-29.558-0.334-62.572,68.54-60.833,125.396c0.426,13.979,3.256,37.017,7.803,56.859c2.894,12.623,7.838,29.879,9.737,36.498
					c1.167,4.075,2.401,8.268,4.23,13.607c2.825,8.236,5.785,16.867,8.986,22.412c6.65,11.506,18.065,16.144,33.835,22.548
					c16.973,6.907,13.576,1.296,41.524,9.673c1.783,0.536,15.707,4.726,18.385,0.434c0.952-1.532,0.169-3.645,1.684-4.959
					c1.667-1.443,4.692-0.715,7.121,0.205c-1.021,18.935,0.736,34.14,2.57,44.572c2.701,15.369,5.657,20.929,6.669,22.731
					c5.114,9.15,12.487,14.447,27.028,24.665c19.674,13.814,28.015,16.027,33.312,27.353c2.731,5.845,0.891,6.073,4.07,12.447
					c3.289,6.591,7.462,10.763,22.229,24.142l0,0c3.687-2.355,4.018-2.584,4.325-2.958c2.091-2.544-0.31-7.563-1.43-10.444
					c-2.857-7.3-0.078-7.523-2.024-23.367c-1.362-11.1-2.713-10.933-4.344-23.049c-1.205-8.943-1.894-14.052-1.387-18.728
					c0.443-4.099,2.908-18.082,25.188-31.83l-4.73-43.096c-7.873-0.909-15.635-2.617-23.162-5.097
					c-19.905-6.598-27.119-15.105-47.6-19.48c-5.353-1.144-10.63-1.794-16.723-1.253c-8.453,0.753-15.024,3.496-18.249,4.871
					c-7.212,3.072-6.388,4.165-12.128,6.393c-8.574,3.334-16.332,3.182-22.048,3.024c-9.094-0.252-7.789-1.865-18.045-2.253
					c-7.729-0.293-11.339,0.515-19.054-0.934c-6.307-1.191-8.813-2.653-9.92-3.368c-2.463-1.594-3.502-3.037-8.396-9.489
					c-7.946-10.479-8.015-10.379-8.712-11.809c-1.491-3.041-3.954-8.231-3.239-14.927c0.234-2.099,0.747-4.157,1.524-6.121
					c3.039-7.688,9.391-11.854,12.335-13.514l-5.893-42.937C469.418,301.104,466.609,299.37,465.654,296.469z"/>
				<path d="M736.461,137.536c-0.171,1.246,0.238,3.941,0.9,6.154c0.424,1.431,0.991,2.814,1.693,4.13
					c0,0,2.544,4.623,17.315,14.177c0.801,0.073,6.779,0.686,7.599,3.687c0.616,2.246-1.968,4.716-3.845,6.431
					c-13.1,12.014-18.151,11.671-23.46,18.59c-4.966,6.474-2.542,9.377-9.375,17.837c-4.115,5.095-5.626,4.826-7.169,8.079
					c-3.572,7.538,2.346,13.629,4.663,25.368c3.482,17.625-6.328,21.827-1.343,33.29c3.668,8.434,11.858,12.783,23.913,19.181
					c7.052,3.744,12.449,6.609,20.007,7.897c21.114,3.599,30.739-9.965,43.255-3.572c4.451,2.274,2.941,3.839,14.152,16.975
					c2.93,3.433,5.221,5.891,19.271,19.818c22.879,22.685,24.77,24.057,27.666,29.308c1.43,2.602,4.128,7.968,7.303,27.374
					c6.221,38.016,2.072,55.146,7.803,56.86c5.57,1.667,17.387-12.174,20.023-26.393c1.398-7.538-0.912-9.084,1.253-16.725
					c2.105-7.432,5.542-10.378,13.538-21.955c4.635-6.712,9.146-13.924,10.696-16.84c1.927-3.622,7.222-15.521-12.399-64.505
					c-12.593-31.439-25.285-52.782-30.963-61.959c-7.834-12.659-15.141-22.882-20.705-30.263l-0.114-9.444
					c-0.036-0.476-0.188-3.096,1.684-4.958c2.006-2.001,5.531-2.36,6.965-0.953c0.952,0.953,0.566,2.281,0.636,4.642
					c0.086,2.942,0.869,5.002,2.435,9.123c1.081,2.857,2.693,7.093,6.232,10.968c4.128,4.525,6.212,3.435,10.559,8.01
					c3.699,3.895,5.373,8.031,6.073,9.808c3.368,8.537,0.849,13.026,4.552,15.928c2.875,2.253,6.888,1.498,8.441,1.205
					c3.784-0.715,8.147-3.244,9.648-7.233c1.224-3.261-0.367-5.073-3.232-14.927c-2.522-8.68-3.751-13.083-2.229-16.246
					c1.877-3.896,5.03-3.249,7.17-8.079c1.541-3.479,1.265-6.896,1.048-9.601c-0.238-3.034-0.455-5.643-2.277-7.965
					c-1.972-2.513-3.499-1.71-5.278-4.004c-2.198-2.837-1.819-6.593-1.429-10.444c0.186-1.841,0.543-5.082,2.367-8.6
					c2.589-5.002,5.938-6.298,7.169-8.077c6.063-8.768-21.707-54.454-70.009-70.791c-12.697-4.287-27.048-10.599-42.208-6.03
					c-4.315,1.301-12.206,3.811-15.634,11.011c-3.172,6.669-2.144,16.61,3.027,22.051c3.097,3.261,6.798,3.958,8.236,8.336
					c0.147,0.452,1.233,3.911-0.205,7.121c-3.299,7.351-18.118,9.58-28.853,5.143c-4.12-1.703-3.635-2.734-7.76-4.847
					C759.396,123.493,737.353,131.117,736.461,137.536z"/>
				<path d="M570.136,79.962c0.543,2.998,1.86,10.274,8.031,15.45c5.218,4.375,11.208,4.987,13.721,5.212
					c7.887,0.7,13.841-2.246,16.087-3.39c9.02-4.602,8.048-9.475,14.813-12.674c3.334-1.576,6.588-1.821,26.325,2.299
					c21.836,4.562,22.594,5.852,26.646,4.621c11.332-3.442,9.491-14.779,22.15-19.591c7.881-2.998,18.299-2.286,26.166,1.139
					c4.597,2.003,8.098,4.828,16.357,7.215c7.652,2.208,9.92,1.308,10.764,0.888c5.752-2.857,5.854-13.249,5.895-17.36
					c0.152-15.72-6.476-31.64-13.854-40.661C714.416-12.115,624.469-2.971,587.944,37.323
					C584.743,40.841,566.668,60.784,570.136,79.962z"/>
				<path d="M683.813,581.021c-3.592-2.427-6.06-2.225-6.431-3.844c-0.672-2.88,6.151-7.636,12.809-10.034
					c7.553-2.723,8.903-0.255,16.089-3.39c3.854-1.684,14.599-8.355,10.956-6.235l0,0c1.877-6.812,2.527-7.438,2.527-7.438
					c2.963-2.857,8.65,2.597,18.201,3.413c11.04,0.953,13.814-5.478,24.37-3.334c6.412,1.288,5.603,3.691,11.24,4.368
					c10.811,1.301,16.599-7.195,23.051-4.345c3.435,1.518,5.716,5.654,5.914,8.646c1.531,21.977-104.015,43.181-111.652,30.691
					C690.25,588.464,688.438,584.146,683.813,581.021z"/>
			</g>
		</g>
	</g>
</g>
</svg>
