<?xml version="1.0" encoding="utf-8"?>
<!-- Generator: Adobe Illustrator 16.0.0, SVG Export Plug-In . SVG Version: 6.00 Build 0)  -->
<!DOCTYPE svg PUBLIC "-//W3C//DTD SVG 1.1//EN" "http://www.w3.org/Graphics/SVG/1.1/DTD/svg11.dtd">
<svg version="1.1" id="Layer_1" xmlns="http://www.w3.org/2000/svg" xmlns:xlink="http://www.w3.org/1999/xlink" x="0px" y="0px"
	 width="1280px" height="1280px" viewBox="0 0 1280 1280" enable-background="new 0 0 1280 1280" xml:space="preserve">
<g>
	<path fill-rule="evenodd" clip-rule="evenodd" fill="#543324" d="M773.794,418.182c0-12.141,0-24.281,0-36.432
		c12.134,0,24.271,0,36.423,0c0,12.137,0,24.285,0,36.432C798.085,418.182,785.941,418.182,773.794,418.182z M793.275,397.457
		c0-0.482-0.018-0.967,0.006-1.448c0.02-0.436-0.117-0.624-0.593-0.615c-1.396,0.025-2.793,0.007-4.188,0.01
		c-0.551,0.001-0.599,0.049-0.599,0.602c-0.002,5.418-0.002,10.836-0.001,16.255c0.001,0.565,0.056,0.622,0.63,0.624
		c1.427,0.004,2.854,0.002,4.28,0c0.701,0,0.734-0.033,0.734-0.755c0.002-2.808-0.004-5.615,0.01-8.424
		c0.002-0.497,0.029-1.006,0.138-1.489c0.206-0.92,0.622-1.744,1.587-2.063c0.505-0.168,1.064-0.224,1.602-0.232
		c1.11-0.016,2.018,0.699,2.209,1.788c0.158,0.903,0.256,1.829,0.269,2.746c0.034,2.611,0.011,5.222,0.013,7.832
		c0.001,0.555,0.039,0.596,0.596,0.597c1.442,0.003,2.885,0.002,4.326,0c0.635,0,0.651-0.02,0.651-0.676
		c0.001-3.036,0.044-6.072-0.02-9.106c-0.026-1.309-0.177-2.632-0.446-3.912c-0.305-1.455-1.113-2.644-2.461-3.393
		c-0.837-0.465-1.751-0.628-2.688-0.757c-1.034-0.142-2.028-0.022-3.003,0.285C795.106,395.71,794.119,396.438,793.275,397.457z
		 M779.146,404.153c0,2.717,0.007,5.434-0.007,8.151c-0.003,0.432,0.14,0.593,0.577,0.588c1.473-0.018,2.945-0.005,4.418-0.008
		c0.554-0.001,0.593-0.042,0.593-0.6c0.001-5.435-0.003-10.869,0.008-16.303c0.001-0.432-0.138-0.592-0.575-0.587
		c-1.457,0.019-2.915,0.007-4.372,0.009c-0.616,0-0.641,0.025-0.642,0.643C779.146,398.748,779.146,401.45,779.146,404.153z
		 M781.943,393.244c1.76,0.084,3.208-1.55,3.206-3.155c-0.003-1.69-1.39-3.22-3.208-3.23c-1.695-0.009-3.218,1.342-3.221,3.208
		C778.718,391.849,780.133,393.244,781.943,393.244z"/>
</g>
</svg>
