<?xml version="1.0" encoding="utf-8"?>
<!-- Generator: Adobe Illustrator 16.0.0, SVG Export Plug-In . SVG Version: 6.00 Build 0)  -->
<!DOCTYPE svg PUBLIC "-//W3C//DTD SVG 1.1//EN" "http://www.w3.org/Graphics/SVG/1.1/DTD/svg11.dtd">
<svg version="1.1" id="Layer_1" xmlns="http://www.w3.org/2000/svg" xmlns:xlink="http://www.w3.org/1999/xlink" x="0px" y="0px"
	 width="1280px" height="1280px" viewBox="0 0 1280 1280" enable-background="new 0 0 1280 1280" xml:space="preserve">
<g id="Monogram">
	<path id="Rectangle-path" fill="#FFFFFF" d="M774.484,381.75h36.431v36.432h-36.431V381.75z M783.178,393.936v10.816
		c0.066,0.391-0.057,0.788-0.331,1.074l-2.571,3.117v0.411h7.29v-0.411l-2.571-3.117c-0.277-0.285-0.408-0.681-0.354-1.074v-9.355
		l6.398,13.958h0.742l5.496-13.958v11.126c0,0.297,0,0.354-0.194,0.549l-1.977,1.919v0.411h9.598v-0.411l-1.907-1.874
		c-0.169-0.128-0.253-0.339-0.219-0.548v-13.765c-0.034-0.209,0.05-0.421,0.219-0.549l1.953-1.872v-0.412h-6.764l-4.822,12.028
		l-5.484-12.028h-7.096v0.412l2.285,2.752C783.094,393.337,783.208,393.634,783.178,393.936z"/>
</g>
</svg>
