<?xml version="1.0" encoding="utf-8"?>
<!-- Generator: Adobe Illustrator 16.0.0, SVG Export Plug-In . SVG Version: 6.00 Build 0)  -->
<!DOCTYPE svg PUBLIC "-//W3C//DTD SVG 1.1//EN" "http://www.w3.org/Graphics/SVG/1.1/DTD/svg11.dtd">
<svg version="1.1" id="Layer_1" xmlns="http://www.w3.org/2000/svg" xmlns:xlink="http://www.w3.org/1999/xlink" x="0px" y="0px"
	 width="768px" height="768px" viewBox="0 0 768 768" enable-background="new 0 0 768 768" xml:space="preserve">
<g>
	<g>
		<g>
			<path fill="none" stroke="#ffffff" stroke-width="3" stroke-miterlimit="10" stroke-dasharray="15.046,15.046" d="M26.857,390
				c0-242.16,189.099-368.755,368.754-368.755"/>
			<path fill="none" stroke="#ffffff" stroke-width="3" stroke-miterlimit="10" stroke-dasharray="15.046,15.046" d="
				M386.295,21.245c242.159,0,368.756,189.098,368.756,368.75"/>
		</g>
		<g>
			<path fill="none" stroke="#ffffff" stroke-width="3" stroke-miterlimit="10" stroke-dasharray="15.046,15.046" d="M754.392,380
				c0,242.155-189.098,368.755-368.753,368.755"/>
			<path fill="none" stroke="#ffffff" stroke-width="3" stroke-miterlimit="10" stroke-dasharray="15.046,15.046" d="
				M394.953,748.755C152.794,748.755,26.198,559.653,26.198,380"/>
		</g>
	</g>
</g>
<g>
	
		<rect x="584.789" y="101.395" transform="matrix(0.8905 -0.4549 0.4549 0.8905 17.6301 278.3011)" fill="#02172D" width="4.667" height="2.241"/>
	
		<rect x="584.789" y="101.395" transform="matrix(0.8905 -0.4549 0.4549 0.8905 17.6301 278.3011)" fill="none" stroke="#EEEEEE" stroke-miterlimit="10" width="4.667" height="2.241"/>
	
		<rect x="604.94" y="70.88" transform="matrix(-0.4548 -0.8906 0.8906 -0.4548 821.9602 647.1813)" fill="#02172D" width="8.265" height="2.241"/>
	
		<rect x="604.94" y="70.88" transform="matrix(-0.4548 -0.8906 0.8906 -0.4548 821.9602 647.1813)" fill="none" stroke="#EEEEEE" stroke-miterlimit="10" width="8.265" height="2.241"/>
	<polygon fill="#DDBC31" points="649.383,53.812 644.793,64.375 651.185,76.888 662.032,78.58 	"/>
	
		<rect x="620.539" y="101.321" transform="matrix(0.4549 0.8906 -0.8906 0.4549 431.7412 -500.4327)" fill="#02172D" width="8.199" height="2.241"/>
	
		<rect x="620.539" y="101.321" transform="matrix(0.4549 0.8906 -0.8906 0.4549 431.7412 -500.4327)" fill="none" stroke="#EEEEEE" stroke-miterlimit="10" width="8.199" height="2.241"/>
	
		<rect x="627.939" y="102.029" transform="matrix(0.8906 -0.4548 0.4548 0.8906 14.2576 304.1465)" fill="#13718E" width="22.716" height="40.818"/>
	
		<rect x="627.939" y="102.029" transform="matrix(0.8906 -0.4548 0.4548 0.8906 14.2576 304.1465)" fill="none" stroke="#E1E5E5" stroke-width="0.75" stroke-miterlimit="10" width="22.716" height="40.818"/>
	
		<rect x="590.1" y="27.933" transform="matrix(0.8906 -0.4548 0.4548 0.8906 43.8169 278.8309)" fill="#13718E" width="22.716" height="40.818"/>
	
		<rect x="590.1" y="27.933" transform="matrix(0.8906 -0.4548 0.4548 0.8906 43.8169 278.8309)" fill="none" stroke="#E1E5E5" stroke-width="0.75" stroke-miterlimit="10" width="22.716" height="40.818"/>
	
		<rect x="585.237" y="72.831" transform="matrix(0.8906 -0.4548 0.4548 0.8906 27.835 290.0695)" fill="#E0E2E2" width="63.217" height="28.694"/>
	<polygon fill="#EF643A" points="547.576,102.608 577.332,98.008 585.573,114.143 563.886,134.544 	"/>
	<polygon fill="#E0E2E2" points="573.04,89.603 576.99,87.586 593.3,119.521 589.351,121.538 585.573,114.142 577.332,98.008 	"/>
	<line fill="none" x1="654.649" y1="137.553" x2="636.033" y2="101.226"/>
	
		<line fill="none" stroke="#E1E5E5" stroke-width="0.5" stroke-miterlimit="10" x1="654.649" y1="137.553" x2="636.033" y2="101.226"/>
	<line fill="none" x1="649.858" y1="140" x2="631.728" y2="103.528"/>
	<line fill="none" stroke="#E1E5E5" stroke-width="0.5" stroke-miterlimit="10" x1="649.858" y1="140" x2="631.728" y2="103.528"/>
	<line fill="none" x1="645.341" y1="142.306" x2="627.047" y2="105.816"/>
	
		<line fill="none" stroke="#E1E5E5" stroke-width="0.5" stroke-miterlimit="10" x1="645.341" y1="142.306" x2="627.047" y2="105.816"/>
	<line fill="none" x1="641.465" y1="144.393" x2="623.171" y2="107.903"/>
	
		<line fill="none" stroke="#E1E5E5" stroke-width="0.5" stroke-miterlimit="10" x1="641.465" y1="144.393" x2="623.171" y2="107.903"/>
	<line fill="none" x1="617.081" y1="63.014" x2="598.466" y2="26.688"/>
	
		<line fill="none" stroke="#E1E5E5" stroke-width="0.5" stroke-miterlimit="10" x1="617.081" y1="63.014" x2="598.466" y2="26.688"/>
	<line fill="none" x1="612.29" y1="65.461" x2="594.16" y2="28.99"/>
	<line fill="none" stroke="#E1E5E5" stroke-width="0.5" stroke-miterlimit="10" x1="612.29" y1="65.461" x2="594.16" y2="28.99"/>
	<line fill="none" x1="607.774" y1="67.767" x2="589.479" y2="31.277"/>
	
		<line fill="none" stroke="#E1E5E5" stroke-width="0.5" stroke-miterlimit="10" x1="607.774" y1="67.767" x2="589.479" y2="31.277"/>
	<line fill="none" x1="603.897" y1="69.854" x2="585.604" y2="33.365"/>
	
		<line fill="none" stroke="#E1E5E5" stroke-width="0.5" stroke-miterlimit="10" x1="603.897" y1="69.854" x2="585.604" y2="33.365"/>
	<g opacity="0.31">
		<g>
			<g>
				<defs>
					
						<rect id="SVGID_1_" x="582.169" y="60.025" transform="matrix(0.8906 -0.4548 0.4548 0.8906 30.4014 287.8783)" width="62.786" height="41.449"/>
				</defs>
				<clipPath id="SVGID_2_">
					<use xlink:href="#SVGID_1_"  overflow="visible"/>
				</clipPath>
				
					<rect x="581.953" y="73.622" transform="matrix(0.8906 -0.4548 0.4548 0.8906 30.4006 287.8767)" clip-path="url(#SVGID_2_)" fill="#202121" width="63.216" height="14.256"/>
			</g>
		</g>
	</g>
	<path fill="#C69720" d="M644.793,64.375l4.59-10.563L644.793,64.375z"/>
	<g opacity="0.31">
		<g>
			<g>
				<defs>
					<rect id="SVGID_3_" x="581.936" y="25.115" width="20.274" height="46.81"/>
				</defs>
				<clipPath id="SVGID_4_">
					<use xlink:href="#SVGID_3_"  overflow="visible"/>
				</clipPath>
				<polygon clip-path="url(#SVGID_4_)" fill="#202121" points="600.72,71.924 602.21,25.115 581.936,35.251 				"/>
			</g>
		</g>
	</g>
	<g opacity="0.31">
		<g>
			<g>
				<defs>
					<rect id="SVGID_5_" x="619.802" y="99.056" width="20.273" height="46.811"/>
				</defs>
				<clipPath id="SVGID_6_">
					<use xlink:href="#SVGID_5_"  overflow="visible"/>
				</clipPath>
				<polygon clip-path="url(#SVGID_6_)" fill="#202121" points="638.585,145.865 640.075,99.056 619.802,109.193 				"/>
			</g>
		</g>
	</g>
	<g opacity="0.31">
		<g>
			<g>
				<defs>
					<rect id="SVGID_7_" x="573.041" y="87.586" width="12.04" height="17.856"/>
				</defs>
				<clipPath id="SVGID_8_">
					<use xlink:href="#SVGID_7_"  overflow="visible"/>
				</clipPath>
				<polygon clip-path="url(#SVGID_8_)" fill="#202121" points="573.04,89.603 576.99,87.586 585.08,103.427 581.13,105.443 
					579.257,101.775 575.169,93.771 				"/>
			</g>
		</g>
	</g>
	<g opacity="0.31">
		<g>
			<g>
				<defs>
					<rect id="SVGID_9_" x="547.499" y="98.007" width="33.691" height="21.383"/>
				</defs>
				<clipPath id="SVGID_10_">
					<use xlink:href="#SVGID_9_"  overflow="visible"/>
				</clipPath>
				<polygon clip-path="url(#SVGID_10_)" fill="#202121" points="581.19,105.467 556.147,119.389 547.499,102.485 577.332,98.008 
									"/>
			</g>
		</g>
	</g>
	<g opacity="0.31">
		<g>
			<g>
				<defs>
					<rect id="SVGID_11_" x="644.792" y="53.812" width="11.581" height="17.547"/>
				</defs>
				<clipPath id="SVGID_12_">
					<use xlink:href="#SVGID_11_"  overflow="visible"/>
				</clipPath>
				<polygon clip-path="url(#SVGID_12_)" fill="#202121" points="648.358,71.359 656.374,67.5 649.383,53.812 644.793,64.375 				
					"/>
			</g>
		</g>
	</g>
</g>
</svg>
