<?xml version="1.0" encoding="utf-8"?>
<!-- Generator: Adobe Illustrator 16.0.0, SVG Export Plug-In . SVG Version: 6.00 Build 0)  -->
<!DOCTYPE svg PUBLIC "-//W3C//DTD SVG 1.1//EN" "http://www.w3.org/Graphics/SVG/1.1/DTD/svg11.dtd">
<svg version="1.1" id="Layer_1" xmlns="http://www.w3.org/2000/svg" xmlns:xlink="http://www.w3.org/1999/xlink" x="0px" y="0px"
	 width="800px" height="768px" viewBox="-16 0 800 768" enable-background="new -16 0 800 768" xml:space="preserve">
<g>
	<g>
		<g>
			<g>
				<path fill="none" stroke="#757575" stroke-width="3" stroke-miterlimit="10" stroke-dasharray="15.046,15.046" d="M50.857,390
					c0-242.16,189.099-368.755,368.754-368.755"/>
				<path fill="none" stroke="#757575" stroke-width="3" stroke-miterlimit="10" stroke-dasharray="15.046,15.046" d="
					M410.295,21.245c242.159,0,368.756,189.098,368.756,368.749"/>
			</g>
			<g>
				<path fill="none" stroke="#757575" stroke-width="3" stroke-miterlimit="10" stroke-dasharray="15.046,15.046" d="M778.392,380
					c0,242.154-189.098,368.755-368.753,368.755"/>
				<path fill="none" stroke="#757575" stroke-width="3" stroke-miterlimit="10" stroke-dasharray="15.046,15.046" d="
					M418.953,748.755C176.794,748.755,50.198,559.653,50.198,380"/>
			</g>
		</g>
	</g>
	<g>
		
			<rect x="612.706" y="94.191" transform="matrix(-0.8904 0.4551 -0.4551 -0.8904 1204.8369 -100.0009)" fill="#02172D" width="3.5" height="1.681"/>
		
			<rect x="612.706" y="94.191" transform="matrix(-0.8904 0.4551 -0.4551 -0.8904 1204.8369 -100.0009)" fill="none" stroke="#EEEEEE" stroke-miterlimit="10" width="3.5" height="1.681"/>
		
			<rect x="627.844" y="71.302" transform="matrix(0.4549 0.8906 -0.8906 0.4549 408.1851 -522.5618)" fill="#02172D" width="6.2" height="1.682"/>
		
			<rect x="627.844" y="71.302" transform="matrix(0.4549 0.8906 -0.8906 0.4549 408.1851 -522.5618)" fill="none" stroke="#EEEEEE" stroke-miterlimit="10" width="6.2" height="1.682"/>
		<polygon fill="#DDBC31" points="661.178,58.503 657.734,66.427 662.529,75.813 670.666,77.082 		"/>
		
			<rect x="639.553" y="94.162" transform="matrix(-0.4548 -0.8906 0.8906 -0.4548 850.321 710.5195)" fill="#02172D" width="6.151" height="1.682"/>
		
			<rect x="639.553" y="94.162" transform="matrix(-0.4548 -0.8906 0.8906 -0.4548 850.321 710.5195)" fill="none" stroke="#EEEEEE" stroke-miterlimit="10" width="6.151" height="1.682"/>
		
			<rect x="645.094" y="94.671" transform="matrix(-0.8906 0.4548 -0.4548 -0.8906 1285.7405 -89.3248)" fill="#13718E" width="17.04" height="30.618"/>
		
			<rect x="645.094" y="94.671" transform="matrix(-0.8906 0.4548 -0.4548 -0.8906 1285.7405 -89.3248)" fill="none" stroke="#E1E5E5" stroke-width="0.75" stroke-miterlimit="10" width="17.04" height="30.618"/>
		
			<rect x="616.711" y="39.09" transform="matrix(-0.8906 0.4548 -0.4548 -0.8906 1206.8024 -181.4983)" fill="#13718E" width="17.04" height="30.618"/>
		
			<rect x="616.711" y="39.09" transform="matrix(-0.8906 0.4548 -0.4548 -0.8906 1206.8024 -181.4983)" fill="none" stroke="#E1E5E5" stroke-width="0.75" stroke-miterlimit="10" width="17.04" height="30.618"/>
		
			<rect x="613.061" y="72.763" transform="matrix(-0.8906 0.4548 -0.4548 -0.8906 1241.865 -131.6874)" fill="#E0E2E2" width="47.42" height="21.524"/>
		<polygon fill="#EF643A" points="584.811,95.106 607.131,91.656 613.313,103.759 597.045,119.062 		"/>
		<polygon fill="#E0E2E2" points="603.912,85.35 606.875,83.838 619.108,107.792 616.146,109.306 613.313,103.758 607.131,91.656 		
			"/>
		<line fill="none" x1="665.128" y1="121.319" x2="651.164" y2="94.069"/>
		
			<line fill="none" stroke="#E1E5E5" stroke-width="0.5" stroke-miterlimit="10" x1="665.128" y1="121.319" x2="651.164" y2="94.069"/>
		<line fill="none" x1="661.534" y1="123.154" x2="647.935" y2="95.796"/>
		
			<line fill="none" stroke="#E1E5E5" stroke-width="0.5" stroke-miterlimit="10" x1="661.534" y1="123.154" x2="647.935" y2="95.796"/>
		<line fill="none" x1="658.146" y1="124.884" x2="644.423" y2="97.512"/>
		
			<line fill="none" stroke="#E1E5E5" stroke-width="0.5" stroke-miterlimit="10" x1="658.146" y1="124.884" x2="644.423" y2="97.512"/>
		<line fill="none" x1="655.238" y1="126.449" x2="641.516" y2="99.077"/>
		
			<line fill="none" stroke="#E1E5E5" stroke-width="0.5" stroke-miterlimit="10" x1="655.238" y1="126.449" x2="641.516" y2="99.077"/>
		<line fill="none" x1="636.947" y1="65.406" x2="622.984" y2="38.157"/>
		
			<line fill="none" stroke="#E1E5E5" stroke-width="0.5" stroke-miterlimit="10" x1="636.947" y1="65.406" x2="622.984" y2="38.157"/>
		<line fill="none" x1="633.354" y1="67.241" x2="619.754" y2="39.884"/>
		
			<line fill="none" stroke="#E1E5E5" stroke-width="0.5" stroke-miterlimit="10" x1="633.354" y1="67.241" x2="619.754" y2="39.884"/>
		<line fill="none" x1="629.967" y1="68.971" x2="616.242" y2="41.599"/>
		
			<line fill="none" stroke="#E1E5E5" stroke-width="0.5" stroke-miterlimit="10" x1="629.967" y1="68.971" x2="616.242" y2="41.599"/>
		<line fill="none" x1="627.058" y1="70.536" x2="613.336" y2="43.165"/>
		
			<line fill="none" stroke="#E1E5E5" stroke-width="0.5" stroke-miterlimit="10" x1="627.058" y1="70.536" x2="613.336" y2="43.165"/>
		<g opacity="0.31">
			<g>
				<g>
					<g>
						<defs>
							
								<rect id="SVGID_1_" x="610.761" y="63.157" transform="matrix(-0.5863 0.8101 -0.8101 -0.5863 1069.9729 -388.9942)" width="47.098" height="31.092"/>
						</defs>
						<clipPath id="SVGID_2_">
							<use xlink:href="#SVGID_1_"  overflow="visible"/>
						</clipPath>
						
							<rect x="610.599" y="73.359" transform="matrix(-0.8906 0.4548 -0.4548 -0.8906 1235.019 -139.6718)" clip-path="url(#SVGID_2_)" fill="#202121" width="47.42" height="10.693"/>
					</g>
				</g>
			</g>
		</g>
		<path fill="#C69720" d="M657.734,66.427l3.443-7.924L657.734,66.427z"/>
		<g opacity="0.31">
			<g>
				<g>
					<g>
						<defs>
							<rect id="SVGID_3_" x="610.584" y="36.977" width="15.208" height="35.113"/>
						</defs>
						<clipPath id="SVGID_4_">
							<use xlink:href="#SVGID_3_"  overflow="visible"/>
						</clipPath>
						<polygon clip-path="url(#SVGID_4_)" fill="#202121" points="624.675,72.09 625.792,36.977 610.584,44.58 						"/>
					</g>
				</g>
			</g>
		</g>
		<g opacity="0.31">
			<g>
				<g>
					<g>
						<defs>
							<rect id="SVGID_5_" x="638.988" y="92.441" width="15.207" height="35.114"/>
						</defs>
						<clipPath id="SVGID_6_">
							<use xlink:href="#SVGID_5_"  overflow="visible"/>
						</clipPath>
						<polygon clip-path="url(#SVGID_6_)" fill="#202121" points="653.078,127.553 654.195,92.441 638.988,100.045 						"/>
					</g>
				</g>
			</g>
		</g>
		<g opacity="0.31">
			<g>
				<g>
					<g>
						<defs>
							<rect id="SVGID_7_" x="603.912" y="83.838" width="9.031" height="13.394"/>
						</defs>
						<clipPath id="SVGID_8_">
							<use xlink:href="#SVGID_7_"  overflow="visible"/>
						</clipPath>
						<polygon clip-path="url(#SVGID_8_)" fill="#202121" points="603.912,85.35 606.875,83.838 612.943,95.72 609.98,97.232 
							608.575,94.481 605.509,88.477 						"/>
					</g>
				</g>
			</g>
		</g>
		<g opacity="0.31">
			<g>
				<g>
					<g>
						<defs>
							<rect id="SVGID_9_" x="584.753" y="91.655" width="25.272" height="16.04"/>
						</defs>
						<clipPath id="SVGID_10_">
							<use xlink:href="#SVGID_9_"  overflow="visible"/>
						</clipPath>
						<polygon clip-path="url(#SVGID_10_)" fill="#202121" points="610.025,97.251 591.239,107.694 584.753,95.013 607.131,91.656 
													"/>
					</g>
				</g>
			</g>
		</g>
		<g opacity="0.31">
			<g>
				<g>
					<g>
						<defs>
							<rect id="SVGID_11_" x="657.734" y="58.503" width="8.687" height="13.162"/>
						</defs>
						<clipPath id="SVGID_12_">
							<use xlink:href="#SVGID_11_"  overflow="visible"/>
						</clipPath>
						<polygon clip-path="url(#SVGID_12_)" fill="#202121" points="660.409,71.665 666.422,68.771 661.178,58.503 657.734,66.427 
													"/>
					</g>
				</g>
			</g>
		</g>
	</g>
	<g>
		
			<rect x="572.182" y="688.897" transform="matrix(0.3078 -0.9515 0.9515 0.3078 -258.9625 1023.5393)" fill="#02172D" width="3.5" height="1.682"/>
		
			<rect x="572.182" y="688.897" transform="matrix(0.3078 -0.9515 0.9515 0.3078 -258.9625 1023.5393)" fill="none" stroke="#EEEEEE" stroke-miterlimit="10" width="3.5" height="1.682"/>
		
			<rect x="575.358" y="716.742" transform="matrix(-0.9514 -0.3081 0.3081 -0.9514 907.7005 1578.4761)" fill="#02172D" width="6.2" height="1.682"/>
		
			<rect x="575.358" y="716.742" transform="matrix(-0.9514 -0.3081 0.3081 -0.9514 907.7005 1578.4761)" fill="none" stroke="#EEEEEE" stroke-miterlimit="10" width="6.2" height="1.682"/>
		<polygon fill="#DDBC31" points="566.725,748.605 563.556,740.567 553.529,737.322 546.878,742.177 		"/>
		
			<rect x="550.956" y="708.838" transform="matrix(0.9514 0.308 -0.308 0.9514 245.5353 -136.149)" fill="#02172D" width="6.151" height="1.682"/>
		
			<rect x="550.956" y="708.838" transform="matrix(0.9514 0.308 -0.308 0.9514 245.5353 -136.149)" fill="none" stroke="#EEEEEE" stroke-miterlimit="10" width="6.151" height="1.682"/>
		
			<rect x="527.154" y="691.548" transform="matrix(0.3082 -0.9513 0.9513 0.3082 -301.8763 998.5825)" fill="#13718E" width="17.04" height="30.618"/>
		
			<rect x="527.154" y="691.548" transform="matrix(0.3082 -0.9513 0.9513 0.3082 -301.8763 998.5825)" fill="none" stroke="#E1E5E5" stroke-width="0.75" stroke-miterlimit="10" width="17.04" height="30.618"/>
		
			<rect x="586.524" y="710.779" transform="matrix(0.3081 -0.9514 0.9514 0.3081 -279.0563 1068.4768)" fill="#13718E" width="17.04" height="30.619"/>
		
			<rect x="586.524" y="710.779" transform="matrix(0.3081 -0.9514 0.9514 0.3081 -279.0563 1068.4768)" fill="none" stroke="#E1E5E5" stroke-width="0.75" stroke-miterlimit="10" width="17.04" height="30.619"/>
		
			<rect x="542.579" y="702.893" transform="matrix(0.3082 -0.9513 0.9513 0.3082 -287.1446 1032.46)" fill="#E0E2E2" width="47.42" height="21.523"/>
		<polygon fill="#EF643A" points="594.843,668.724 581.499,686.946 568.57,682.759 569.252,660.435 		"/>
		<polygon fill="#E0E2E2" points="588.233,689.128 587.208,692.293 561.619,684.005 562.644,680.84 568.57,682.76 581.499,686.946 
					"/>
		<line fill="none" x1="519.515" y1="706.982" x2="548.656" y2="716.375"/>
		
			<line fill="none" stroke="#E1E5E5" stroke-width="0.5" stroke-miterlimit="10" x1="519.515" y1="706.982" x2="548.656" y2="716.375"/>
		<line fill="none" x1="520.758" y1="703.142" x2="549.719" y2="712.871"/>
		
			<line fill="none" stroke="#E1E5E5" stroke-width="0.5" stroke-miterlimit="10" x1="520.758" y1="703.142" x2="549.719" y2="712.871"/>
		<line fill="none" x1="521.93" y1="699.523" x2="550.989" y2="709.175"/>
		
			<line fill="none" stroke="#E1E5E5" stroke-width="0.5" stroke-miterlimit="10" x1="521.93" y1="699.523" x2="550.989" y2="709.175"/>
		<line fill="none" x1="522.879" y1="696.361" x2="551.938" y2="706.011"/>
		
			<line fill="none" stroke="#E1E5E5" stroke-width="0.5" stroke-miterlimit="10" x1="522.879" y1="696.361" x2="551.938" y2="706.011"/>
		<line fill="none" x1="578.977" y1="726.591" x2="608.118" y2="735.986"/>
		
			<line fill="none" stroke="#E1E5E5" stroke-width="0.5" stroke-miterlimit="10" x1="578.977" y1="726.591" x2="608.118" y2="735.986"/>
		<line fill="none" x1="580.22" y1="722.751" x2="609.182" y2="732.48"/>
		
			<line fill="none" stroke="#E1E5E5" stroke-width="0.5" stroke-miterlimit="10" x1="580.22" y1="722.751" x2="609.182" y2="732.48"/>
		<line fill="none" x1="581.393" y1="719.134" x2="610.451" y2="728.783"/>
		
			<line fill="none" stroke="#E1E5E5" stroke-width="0.5" stroke-miterlimit="10" x1="581.393" y1="719.134" x2="610.451" y2="728.783"/>
		<line fill="none" x1="582.342" y1="715.97" x2="611.399" y2="725.621"/>
		
			<line fill="none" stroke="#E1E5E5" stroke-width="0.5" stroke-miterlimit="10" x1="582.342" y1="715.97" x2="611.399" y2="725.621"/>
		<g opacity="0.31">
			<g>
				<g>
					<g>
						<defs>
							
								<rect id="SVGID_13_" x="547.892" y="699.778" transform="matrix(-0.1582 -0.9874 0.9874 -0.1582 -44.4671 1392.7375)" width="47.097" height="31.091"/>
						</defs>
						<clipPath id="SVGID_14_">
							<use xlink:href="#SVGID_13_"  overflow="visible"/>
						</clipPath>
						
							<rect x="547.728" y="709.974" transform="matrix(0.3082 -0.9513 0.9513 0.3082 -285.1672 1038.5101)" clip-path="url(#SVGID_14_)" fill="#202121" width="47.42" height="10.693"/>
					</g>
				</g>
			</g>
		</g>
		<path fill="#C69720" d="M563.556,740.567l3.169,8.038L563.556,740.567z"/>
		<g opacity="0.31">
			<g>
				<g>
					<g>
						<defs>
							
								<rect id="SVGID_15_" x="592.326" y="703.458" transform="matrix(0.7071 -0.7071 0.7071 0.7071 -334.1187 635.3949)" width="15.208" height="35.114"/>
						</defs>
						<clipPath id="SVGID_16_">
							<use xlink:href="#SVGID_15_"  overflow="visible"/>
						</clipPath>
						<polygon clip-path="url(#SVGID_16_)" fill="#202121" points="582.929,713.187 606.968,738.806 612.345,722.675 						"/>
					</g>
				</g>
			</g>
		</g>
		<g opacity="0.31">
			<g>
				<g>
					<g>
						<defs>
							
								<rect id="SVGID_17_" x="533.023" y="684.322" transform="matrix(0.7071 -0.7071 0.7071 0.7071 -337.9578 587.856)" width="15.207" height="35.114"/>
						</defs>
						<clipPath id="SVGID_18_">
							<use xlink:href="#SVGID_17_"  overflow="visible"/>
						</clipPath>
						<polygon clip-path="url(#SVGID_18_)" fill="#202121" points="523.626,694.052 547.664,719.67 553.041,703.54 						"/>
					</g>
				</g>
			</g>
		</g>
		<g opacity="0.31">
			<g>
				<g>
					<g>
						<defs>
							
								<rect id="SVGID_19_" x="576.859" y="681.959" transform="matrix(0.7071 -0.7071 0.7071 0.7071 -316.6726 612.7965)" width="9.031" height="13.394"/>
						</defs>
						<clipPath id="SVGID_20_">
							<use xlink:href="#SVGID_19_"  overflow="visible"/>
						</clipPath>
						<polygon clip-path="url(#SVGID_20_)" fill="#202121" points="588.233,689.128 587.208,692.293 574.515,688.182 
							575.541,685.018 578.48,685.97 584.895,688.047 						"/>
					</g>
				</g>
			</g>
		</g>
		<g opacity="0.31">
			<g>
				<g>
					<g>
						<defs>
							
								<rect id="SVGID_21_" x="570.081" y="666.368" transform="matrix(0.7071 -0.7071 0.7071 0.7071 -306.1881 609.543)" width="25.273" height="16.04"/>
						</defs>
						<clipPath id="SVGID_22_">
							<use xlink:href="#SVGID_21_"  overflow="visible"/>
						</clipPath>
						<polygon clip-path="url(#SVGID_22_)" fill="#202121" points="575.496,685.036 581.396,664.368 594.948,668.748 
							581.499,686.946 						"/>
					</g>
				</g>
			</g>
		</g>
		<g opacity="0.31">
			<g>
				<g>
					<g>
						<defs>
							
								<rect id="SVGID_23_" x="557.091" y="738.007" transform="matrix(0.7071 -0.7071 0.7071 0.7071 -362.0626 615.0789)" width="8.687" height="13.162"/>
						</defs>
						<clipPath id="SVGID_24_">
							<use xlink:href="#SVGID_23_"  overflow="visible"/>
						</clipPath>
						<polygon clip-path="url(#SVGID_24_)" fill="#202121" points="557.961,738.754 555.756,745.053 566.725,748.605 
							563.556,740.567 						"/>
					</g>
				</g>
			</g>
		</g>
	</g>
	<g>
		
			<rect x="54.505" y="411.424" transform="matrix(0.4552 0.8904 -0.8904 0.4552 397.7156 174.5009)" fill="#02172D" width="3.5" height="1.682"/>
		
			<rect x="54.505" y="411.424" transform="matrix(0.4552 0.8904 -0.8904 0.4552 397.7156 174.5009)" fill="none" stroke="#EEEEEE" stroke-miterlimit="10" width="3.5" height="1.682"/>
		
			<rect x="30.265" y="394.937" transform="matrix(0.8906 -0.4549 0.4549 0.8906 -176.3685 58.4874)" fill="#02172D" width="6.201" height="1.681"/>
		
			<rect x="30.265" y="394.937" transform="matrix(0.8906 -0.4549 0.4549 0.8906 -176.3685 58.4874)" fill="none" stroke="#EEEEEE" stroke-miterlimit="10" width="6.201" height="1.681"/>
		<polygon fill="#DDBC31" points="19.727,365.544 27.651,368.987 37.036,364.192 38.305,356.055 		"/>
		
			<rect x="53.151" y="383.251" transform="matrix(-0.8905 0.4549 -0.4549 -0.8905 281.0273 700.5623)" fill="#02172D" width="6.15" height="1.683"/>
		
			<rect x="53.151" y="383.251" transform="matrix(-0.8905 0.4549 -0.4549 -0.8905 281.0273 700.5623)" fill="none" stroke="#EEEEEE" stroke-miterlimit="10" width="6.15" height="1.683"/>
		
			<rect x="62.683" y="357.798" transform="matrix(0.4547 0.8906 -0.8906 0.4547 371.1284 140.0331)" fill="#13718E" width="17.039" height="30.618"/>
		
			<rect x="62.683" y="357.798" transform="matrix(0.4547 0.8906 -0.8906 0.4547 371.1284 140.0331)" fill="none" stroke="#E1E5E5" stroke-width="0.75" stroke-miterlimit="10" width="17.039" height="30.618"/>
		
			<rect x="7.104" y="386.18" transform="matrix(0.4549 0.8906 -0.8906 0.4549 366.0654 204.9479)" fill="#13718E" width="17.04" height="30.62"/>
		
			<rect x="7.104" y="386.18" transform="matrix(0.4549 0.8906 -0.8906 0.4549 366.0654 204.9479)" fill="none" stroke="#E1E5E5" stroke-width="0.75" stroke-miterlimit="10" width="17.04" height="30.62"/>
		
			<rect x="21.038" y="379.189" transform="matrix(0.4548 0.8906 -0.8906 0.4548 371.6869 172.7545)" fill="#E0E2E2" width="47.42" height="21.522"/>
		<polygon fill="#EF643A" points="56.328,441.91 52.879,419.59 64.981,413.408 80.285,429.676 		"/>
		<polygon fill="#E0E2E2" points="46.574,422.809 45.061,419.846 69.016,407.613 70.529,410.574 64.98,413.408 52.879,419.59 		"/>
		<line fill="none" x1="82.541" y1="361.593" x2="55.292" y2="375.557"/>
		
			<line fill="none" stroke="#E1E5E5" stroke-width="0.5" stroke-miterlimit="10" x1="82.541" y1="361.593" x2="55.292" y2="375.557"/>
		<line fill="none" x1="84.377" y1="365.187" x2="57.019" y2="378.786"/>
		
			<line fill="none" stroke="#E1E5E5" stroke-width="0.5" stroke-miterlimit="10" x1="84.377" y1="365.187" x2="57.019" y2="378.786"/>
		<line fill="none" x1="86.107" y1="368.575" x2="58.734" y2="382.298"/>
		
			<line fill="none" stroke="#E1E5E5" stroke-width="0.5" stroke-miterlimit="10" x1="86.107" y1="368.575" x2="58.734" y2="382.298"/>
		<line fill="none" x1="87.672" y1="371.482" x2="60.301" y2="385.206"/>
		
			<line fill="none" stroke="#E1E5E5" stroke-width="0.5" stroke-miterlimit="10" x1="87.672" y1="371.482" x2="60.301" y2="385.206"/>
		<line fill="none" x1="26.629" y1="389.774" x2="-0.62" y2="403.737"/>
		
			<line fill="none" stroke="#E1E5E5" stroke-width="0.5" stroke-miterlimit="10" x1="26.629" y1="389.774" x2="-0.62" y2="403.737"/>
		<line fill="none" x1="28.465" y1="393.367" x2="1.107" y2="406.968"/>
		
			<line fill="none" stroke="#E1E5E5" stroke-width="0.5" stroke-miterlimit="10" x1="28.465" y1="393.367" x2="1.107" y2="406.968"/>
		<line fill="none" x1="30.194" y1="396.754" x2="2.823" y2="410.479"/>
		
			<line fill="none" stroke="#E1E5E5" stroke-width="0.5" stroke-miterlimit="10" x1="30.194" y1="396.754" x2="2.823" y2="410.479"/>
		<line fill="none" x1="31.76" y1="399.663" x2="4.388" y2="413.385"/>
		<line fill="none" stroke="#E1E5E5" stroke-width="0.5" stroke-miterlimit="10" x1="31.76" y1="399.663" x2="4.388" y2="413.385"/>
		<g opacity="0.31">
			<g>
				<g>
					<g>
						<defs>
							
								<rect id="SVGID_25_" x="16.377" y="376.866" transform="matrix(0.8101 0.5863 -0.5863 0.8101 237.6634 51.1189)" width="47.097" height="31.091"/>
						</defs>
						<clipPath id="SVGID_26_">
							<use xlink:href="#SVGID_25_"  overflow="visible"/>
						</clipPath>
						
							<rect x="16.219" y="387.066" transform="matrix(0.4548 0.8906 -0.8906 0.4548 371.2533 178.3882)" clip-path="url(#SVGID_26_)" fill="#202121" width="47.42" height="10.693"/>
					</g>
				</g>
			</g>
		</g>
		<path fill="#C69720" d="M27.651,368.987l-7.924-3.443L27.651,368.987z"/>
		<g opacity="0.31">
			<g>
				<g>
					<g>
						<defs>
							<rect id="SVGID_27_" x="-1.801" y="400.929" width="35.114" height="15.208"/>
						</defs>
						<clipPath id="SVGID_28_">
							<use xlink:href="#SVGID_27_"  overflow="visible"/>
						</clipPath>
						<polygon clip-path="url(#SVGID_28_)" fill="#202121" points="33.313,402.046 -1.801,400.929 5.803,416.137 						"/>
					</g>
				</g>
			</g>
		</g>
		<g opacity="0.31">
			<g>
				<g>
					<g>
						<defs>
							<rect id="SVGID_29_" x="53.664" y="372.526" width="35.114" height="15.207"/>
						</defs>
						<clipPath id="SVGID_30_">
							<use xlink:href="#SVGID_29_"  overflow="visible"/>
						</clipPath>
						<polygon clip-path="url(#SVGID_30_)" fill="#202121" points="88.776,373.643 53.664,372.526 61.268,387.734 						"/>
					</g>
				</g>
			</g>
		</g>
		<g opacity="0.31">
			<g>
				<g>
					<g>
						<defs>
							<rect id="SVGID_31_" x="45.061" y="413.778" width="13.394" height="9.031"/>
						</defs>
						<clipPath id="SVGID_32_">
							<use xlink:href="#SVGID_31_"  overflow="visible"/>
						</clipPath>
						<polygon clip-path="url(#SVGID_32_)" fill="#202121" points="46.574,422.809 45.061,419.846 56.943,413.778 58.455,416.74 
							55.703,418.146 49.699,421.212 						"/>
					</g>
				</g>
			</g>
		</g>
		<g opacity="0.31">
			<g>
				<g>
					<g>
						<defs>
							<rect id="SVGID_33_" x="52.877" y="416.696" width="16.04" height="25.273"/>
						</defs>
						<clipPath id="SVGID_34_">
							<use xlink:href="#SVGID_33_"  overflow="visible"/>
						</clipPath>
						<polygon clip-path="url(#SVGID_34_)" fill="#202121" points="58.474,416.696 68.917,435.482 56.236,441.968 52.879,419.59 
													"/>
					</g>
				</g>
			</g>
		</g>
		<g opacity="0.31">
			<g>
				<g>
					<g>
						<defs>
							<rect id="SVGID_35_" x="19.727" y="360.3" width="13.162" height="8.687"/>
						</defs>
						<clipPath id="SVGID_36_">
							<use xlink:href="#SVGID_35_"  overflow="visible"/>
						</clipPath>
						<polygon clip-path="url(#SVGID_36_)" fill="#202121" points="32.889,366.312 29.994,360.299 19.727,365.544 27.651,368.987 
													"/>
					</g>
				</g>
			</g>
		</g>
	</g>
</g>
</svg>
