<?xml version="1.0" encoding="utf-8"?>
<!-- Generator: Adobe Illustrator 16.0.0, SVG Export Plug-In . SVG Version: 6.00 Build 0)  -->
<!DOCTYPE svg PUBLIC "-//W3C//DTD SVG 1.1//EN" "http://www.w3.org/Graphics/SVG/1.1/DTD/svg11.dtd">
<svg version="1.1" id="Layer_1" xmlns="http://www.w3.org/2000/svg" xmlns:xlink="http://www.w3.org/1999/xlink" x="0px" y="0px"
	 width="768px" height="768px" viewBox="0 0 768 768" enable-background="new 0 0 768 768" xml:space="preserve">
<g>
	<g>
		<g>
			<path fill="none" stroke="#9e9e9e" stroke-width="3" stroke-miterlimit="10" stroke-dasharray="15.046,15.046" d="M26.857,390
				c0-242.16,189.099-368.755,368.754-368.755"/>
			<path fill="none" stroke="#9e9e9e" stroke-width="3" stroke-miterlimit="10" stroke-dasharray="15.046,15.046" d="
				M386.295,21.245c242.159,0,368.756,189.098,368.756,368.749"/>
		</g>
		<g>
			<path fill="none" stroke="#9e9e9e" stroke-width="3" stroke-miterlimit="10" stroke-dasharray="15.046,15.046" d="M754.392,380
				c0,242.154-189.098,368.755-368.753,368.755"/>
			<path fill="none" stroke="#9e9e9e" stroke-width="3" stroke-miterlimit="10" stroke-dasharray="15.046,15.046" d="
				M394.953,748.755C152.794,748.755,26.198,559.653,26.198,380"/>
		</g>
	</g>
</g>
<g>
	
		<rect x="594.221" y="97.735" transform="matrix(-0.8905 0.4549 -0.4549 -0.8905 1171.0437 -84.8771)" fill="#02172D" width="3.028" height="1.454"/>
	
		<rect x="594.221" y="97.735" transform="matrix(-0.8905 0.4549 -0.4549 -0.8905 1171.0437 -84.8771)" fill="none" stroke="#EEEEEE" stroke-miterlimit="10" width="3.028" height="1.454"/>
	
		<rect x="607.315" y="77.936" transform="matrix(0.4547 0.8906 -0.8906 0.4547 402.6918 -500.3951)" fill="#02172D" width="5.363" height="1.454"/>
	
		<rect x="607.315" y="77.936" transform="matrix(0.4547 0.8906 -0.8906 0.4547 402.6918 -500.3951)" fill="none" stroke="#EEEEEE" stroke-miterlimit="10" width="5.363" height="1.454"/>
	<polygon fill="#DDBC31" points="636.148,66.865 633.171,73.719 637.318,81.838 644.356,82.936 	"/>
	
		<rect x="617.444" y="97.71" transform="matrix(-0.4548 -0.8906 0.8906 -0.4548 814.4816 695.4603)" fill="#02172D" width="5.32" height="1.455"/>
	
		<rect x="617.444" y="97.71" transform="matrix(-0.4548 -0.8906 0.8906 -0.4548 814.4816 695.4603)" fill="none" stroke="#EEEEEE" stroke-miterlimit="10" width="5.32" height="1.455"/>
	
		<rect x="622.237" y="98.151" transform="matrix(-0.8906 0.4548 -0.4548 -0.8906 1240.9963 -75.7302)" fill="#13718E" width="14.739" height="26.485"/>
	
		<rect x="622.237" y="98.151" transform="matrix(-0.8906 0.4548 -0.4548 -0.8906 1240.9963 -75.7302)" fill="none" stroke="#E1E5E5" stroke-width="0.75" stroke-miterlimit="10" width="14.739" height="26.485"/>
	
		<rect x="597.685" y="50.073" transform="matrix(-0.8906 0.4548 -0.4548 -0.8906 1172.7139 -155.4614)" fill="#13718E" width="14.739" height="26.485"/>
	
		<rect x="597.685" y="50.073" transform="matrix(-0.8906 0.4548 -0.4548 -0.8906 1172.7139 -155.4614)" fill="none" stroke="#E1E5E5" stroke-width="0.75" stroke-miterlimit="10" width="14.739" height="26.485"/>
	
		<rect x="594.528" y="79.2" transform="matrix(-0.8906 0.4548 -0.4548 -0.8906 1203.0397 -112.3831)" fill="#E0E2E2" width="41.019" height="18.618"/>
	<polygon fill="#EF643A" points="570.091,98.526 589.398,95.542 594.746,106.011 580.674,119.248 	"/>
	<polygon fill="#E0E2E2" points="586.613,90.088 589.177,88.78 599.759,109.5 597.196,110.809 594.746,106.01 589.398,95.542 	"/>
	<line fill="none" x1="639.566" y1="121.2" x2="627.487" y2="97.63"/>
	<line fill="none" stroke="#E1E5E5" stroke-width="0.5" stroke-miterlimit="10" x1="639.566" y1="121.2" x2="627.487" y2="97.63"/>
	<line fill="none" x1="636.457" y1="122.788" x2="624.693" y2="99.123"/>
	
		<line fill="none" stroke="#E1E5E5" stroke-width="0.5" stroke-miterlimit="10" x1="636.457" y1="122.788" x2="624.693" y2="99.123"/>
	<line fill="none" x1="633.526" y1="124.284" x2="621.656" y2="100.608"/>
	
		<line fill="none" stroke="#E1E5E5" stroke-width="0.5" stroke-miterlimit="10" x1="633.526" y1="124.284" x2="621.656" y2="100.608"/>
	<line fill="none" x1="631.011" y1="125.638" x2="619.142" y2="101.962"/>
	
		<line fill="none" stroke="#E1E5E5" stroke-width="0.5" stroke-miterlimit="10" x1="631.011" y1="125.638" x2="619.142" y2="101.962"/>
	<line fill="none" x1="615.189" y1="72.836" x2="603.111" y2="49.265"/>
	
		<line fill="none" stroke="#E1E5E5" stroke-width="0.5" stroke-miterlimit="10" x1="615.189" y1="72.836" x2="603.111" y2="49.265"/>
	<line fill="none" x1="612.081" y1="74.424" x2="600.317" y2="50.759"/>
	
		<line fill="none" stroke="#E1E5E5" stroke-width="0.5" stroke-miterlimit="10" x1="612.081" y1="74.424" x2="600.317" y2="50.759"/>
	<line fill="none" x1="609.151" y1="75.92" x2="597.279" y2="52.243"/>
	<line fill="none" stroke="#E1E5E5" stroke-width="0.5" stroke-miterlimit="10" x1="609.151" y1="75.92" x2="597.279" y2="52.243"/>
	<line fill="none" x1="606.635" y1="77.274" x2="594.766" y2="53.597"/>
	
		<line fill="none" stroke="#E1E5E5" stroke-width="0.5" stroke-miterlimit="10" x1="606.635" y1="77.274" x2="594.766" y2="53.597"/>
	<g opacity="0.31">
		<g>
			<g>
				<g>
					<defs>
						
							<rect id="SVGID_1_" x="592.538" y="70.89" transform="matrix(-0.5863 0.8101 -0.8101 -0.5863 1040.5892 -362.7167)" width="40.74" height="26.894"/>
					</defs>
					<clipPath id="SVGID_2_">
						<use xlink:href="#SVGID_1_"  overflow="visible"/>
					</clipPath>
					
						<rect x="592.398" y="79.715" transform="matrix(-0.8906 0.4548 -0.4548 -0.8906 1197.1216 -119.2824)" clip-path="url(#SVGID_2_)" fill="#202121" width="41.018" height="9.25"/>
				</g>
			</g>
		</g>
	</g>
	<path fill="#C69720" d="M633.171,73.719l2.978-6.854L633.171,73.719z"/>
	<g opacity="0.31">
		<g>
			<g>
				<g>
					<defs>
						<rect id="SVGID_3_" x="592.386" y="48.244" width="13.154" height="30.373"/>
					</defs>
					<clipPath id="SVGID_4_">
						<use xlink:href="#SVGID_3_"  overflow="visible"/>
					</clipPath>
					<polygon clip-path="url(#SVGID_4_)" fill="#202121" points="604.573,78.617 605.54,48.244 592.386,54.822 					"/>
				</g>
			</g>
		</g>
	</g>
	<g opacity="0.31">
		<g>
			<g>
				<g>
					<defs>
						<rect id="SVGID_5_" x="616.955" y="96.221" width="13.154" height="30.374"/>
					</defs>
					<clipPath id="SVGID_6_">
						<use xlink:href="#SVGID_5_"  overflow="visible"/>
					</clipPath>
					<polygon clip-path="url(#SVGID_6_)" fill="#202121" points="629.143,126.594 630.109,96.221 616.955,102.799 					"/>
				</g>
			</g>
		</g>
	</g>
	<g opacity="0.31">
		<g>
			<g>
				<g>
					<defs>
						<rect id="SVGID_7_" x="586.614" y="88.78" width="7.813" height="11.585"/>
					</defs>
					<clipPath id="SVGID_8_">
						<use xlink:href="#SVGID_7_"  overflow="visible"/>
					</clipPath>
					<polygon clip-path="url(#SVGID_8_)" fill="#202121" points="586.613,90.088 589.177,88.78 594.426,99.058 591.862,100.365 
						590.647,97.986 587.995,92.792 					"/>
				</g>
			</g>
		</g>
	</g>
	<g opacity="0.31">
		<g>
			<g>
				<g>
					<defs>
						<rect id="SVGID_9_" x="570.041" y="95.541" width="21.86" height="13.875"/>
					</defs>
					<clipPath id="SVGID_10_">
						<use xlink:href="#SVGID_9_"  overflow="visible"/>
					</clipPath>
					<polygon clip-path="url(#SVGID_10_)" fill="#202121" points="591.901,100.382 575.652,109.415 570.041,98.446 589.398,95.542 
											"/>
				</g>
			</g>
		</g>
	</g>
	<g opacity="0.31">
		<g>
			<g>
				<g>
					<defs>
						<rect id="SVGID_11_" x="633.17" y="66.865" width="7.515" height="11.385"/>
					</defs>
					<clipPath id="SVGID_12_">
						<use xlink:href="#SVGID_11_"  overflow="visible"/>
					</clipPath>
					<polygon clip-path="url(#SVGID_12_)" fill="#202121" points="635.484,78.25 640.686,75.747 636.148,66.865 633.171,73.719 
											"/>
				</g>
			</g>
		</g>
	</g>
</g>
<g>
	
		<rect x="548.215" y="692.875" transform="matrix(0.308 -0.9514 0.9514 0.308 -279.4678 1002.9838)" fill="#02172D" width="3.028" height="1.454"/>
	
		<rect x="548.215" y="692.875" transform="matrix(0.308 -0.9514 0.9514 0.308 -279.4678 1002.9838)" fill="none" stroke="#EEEEEE" stroke-miterlimit="10" width="3.028" height="1.454"/>
	
		<rect x="550.963" y="716.959" transform="matrix(-0.9513 -0.3082 0.3082 -0.9513 859.1609 1571.0647)" fill="#02172D" width="5.362" height="1.454"/>
	
		<rect x="550.963" y="716.959" transform="matrix(-0.9513 -0.3082 0.3082 -0.9513 859.1609 1571.0647)" fill="none" stroke="#EEEEEE" stroke-miterlimit="10" width="5.362" height="1.454"/>
	<polygon fill="#DDBC31" points="543.494,744.521 540.753,737.569 532.08,734.761 526.326,738.96 	"/>
	
		<rect x="529.854" y="710.124" transform="matrix(0.9513 0.3082 -0.3082 0.9513 244.9859 -129.511)" fill="#02172D" width="5.32" height="1.455"/>
	
		<rect x="529.854" y="710.124" transform="matrix(0.9513 0.3082 -0.3082 0.9513 244.9859 -129.511)" fill="none" stroke="#EEEEEE" stroke-miterlimit="10" width="5.32" height="1.455"/>
	
		<rect x="509.265" y="695.167" transform="matrix(0.3082 -0.9513 0.9513 0.3082 -316.5074 981.5923)" fill="#13718E" width="14.739" height="26.484"/>
	
		<rect x="509.265" y="695.167" transform="matrix(0.3082 -0.9513 0.9513 0.3082 -316.5074 981.5923)" fill="none" stroke="#E1E5E5" stroke-width="0.75" stroke-miterlimit="10" width="14.739" height="26.484"/>
	
		<rect x="560.622" y="711.803" transform="matrix(0.3082 -0.9513 0.9513 0.3082 -296.823 1041.9045)" fill="#13718E" width="14.739" height="26.484"/>
	
		<rect x="560.622" y="711.803" transform="matrix(0.3082 -0.9513 0.9513 0.3082 -296.823 1041.9045)" fill="none" stroke="#E1E5E5" stroke-width="0.75" stroke-miterlimit="10" width="14.739" height="26.484"/>
	
		<rect x="522.608" y="704.98" transform="matrix(0.3082 -0.9513 0.9513 0.3082 -303.7763 1010.8602)" fill="#E0E2E2" width="41.02" height="18.617"/>
	<polygon fill="#EF643A" points="567.816,675.423 556.273,691.186 545.09,687.565 545.68,668.253 	"/>
	<polygon fill="#E0E2E2" points="562.1,693.073 561.212,695.811 539.077,688.642 539.964,685.905 545.09,687.565 556.273,691.186 	
		"/>
	<line fill="none" x1="502.656" y1="708.517" x2="527.864" y2="716.643"/>
	
		<line fill="none" stroke="#E1E5E5" stroke-width="0.5" stroke-miterlimit="10" x1="502.656" y1="708.517" x2="527.864" y2="716.643"/>
	<line fill="none" x1="503.732" y1="705.196" x2="528.784" y2="713.612"/>
	
		<line fill="none" stroke="#E1E5E5" stroke-width="0.5" stroke-miterlimit="10" x1="503.732" y1="705.196" x2="528.784" y2="713.612"/>
	<line fill="none" x1="504.747" y1="702.066" x2="529.882" y2="710.413"/>
	
		<line fill="none" stroke="#E1E5E5" stroke-width="0.5" stroke-miterlimit="10" x1="504.747" y1="702.066" x2="529.882" y2="710.413"/>
	<line fill="none" x1="505.568" y1="699.328" x2="530.703" y2="707.678"/>
	
		<line fill="none" stroke="#E1E5E5" stroke-width="0.5" stroke-miterlimit="10" x1="505.568" y1="699.328" x2="530.703" y2="707.678"/>
	<line fill="none" x1="554.093" y1="725.479" x2="579.3" y2="733.605"/>
	
		<line fill="none" stroke="#E1E5E5" stroke-width="0.5" stroke-miterlimit="10" x1="554.093" y1="725.479" x2="579.3" y2="733.605"/>
	<line fill="none" x1="555.168" y1="722.157" x2="580.22" y2="730.573"/>
	
		<line fill="none" stroke="#E1E5E5" stroke-width="0.5" stroke-miterlimit="10" x1="555.168" y1="722.157" x2="580.22" y2="730.573"/>
	<line fill="none" x1="556.182" y1="719.029" x2="581.318" y2="727.375"/>
	
		<line fill="none" stroke="#E1E5E5" stroke-width="0.5" stroke-miterlimit="10" x1="556.182" y1="719.029" x2="581.318" y2="727.375"/>
	<line fill="none" x1="557.003" y1="716.291" x2="582.138" y2="724.641"/>
	
		<line fill="none" stroke="#E1E5E5" stroke-width="0.5" stroke-miterlimit="10" x1="557.003" y1="716.291" x2="582.138" y2="724.641"/>
	<g opacity="0.31">
		<g>
			<g>
				<g>
					<defs>
						
							<rect id="SVGID_13_" x="527.203" y="702.285" transform="matrix(-0.1582 -0.9874 0.9874 -0.1582 -72.5148 1369.6433)" width="40.74" height="26.893"/>
					</defs>
					<clipPath id="SVGID_14_">
						<use xlink:href="#SVGID_13_"  overflow="visible"/>
					</clipPath>
					
						<rect x="527.062" y="711.106" transform="matrix(0.3082 -0.9513 0.9513 0.3082 -302.0758 1016.0693)" clip-path="url(#SVGID_14_)" fill="#202121" width="41.019" height="9.249"/>
				</g>
			</g>
		</g>
	</g>
	<path fill="#C69720" d="M540.753,737.569l2.741,6.952L540.753,737.569z"/>
	<g opacity="0.31">
		<g>
			<g>
				<g>
					<defs>
						
							<rect id="SVGID_15_" x="565.639" y="705.468" transform="matrix(0.7071 -0.7071 0.7071 0.7071 -341.9814 615.6929)" width="13.155" height="30.373"/>
					</defs>
					<clipPath id="SVGID_16_">
						<use xlink:href="#SVGID_15_"  overflow="visible"/>
					</clipPath>
					<polygon clip-path="url(#SVGID_16_)" fill="#202121" points="557.512,713.884 578.304,736.044 582.955,722.092 					"/>
				</g>
			</g>
		</g>
	</g>
	<g opacity="0.31">
		<g>
			<g>
				<g>
					<defs>
						
							<rect id="SVGID_17_" x="514.341" y="688.916" transform="matrix(0.7071 -0.7071 0.7071 0.7071 -345.3025 574.5715)" width="13.155" height="30.374"/>
					</defs>
					<clipPath id="SVGID_18_">
						<use xlink:href="#SVGID_17_"  overflow="visible"/>
					</clipPath>
					<polygon clip-path="url(#SVGID_18_)" fill="#202121" points="506.214,697.332 527.006,719.492 531.657,705.54 					"/>
				</g>
			</g>
		</g>
	</g>
	<g opacity="0.31">
		<g>
			<g>
				<g>
					<defs>
						
							<rect id="SVGID_19_" x="552.26" y="686.872" transform="matrix(0.707 -0.7072 0.7072 0.707 -326.8994 596.2233)" width="7.812" height="11.585"/>
					</defs>
					<clipPath id="SVGID_20_">
						<use xlink:href="#SVGID_19_"  overflow="visible"/>
					</clipPath>
					<polygon clip-path="url(#SVGID_20_)" fill="#202121" points="562.1,693.073 561.212,695.811 550.233,692.255 551.12,689.517 
						553.663,690.342 559.211,692.138 					"/>
				</g>
			</g>
		</g>
	</g>
	<g opacity="0.31">
		<g>
			<g>
				<g>
					<defs>
						
							<rect id="SVGID_21_" x="546.398" y="673.385" transform="matrix(0.7071 -0.7071 0.7071 0.7071 -317.823 593.3524)" width="21.86" height="13.874"/>
					</defs>
					<clipPath id="SVGID_22_">
						<use xlink:href="#SVGID_21_"  overflow="visible"/>
					</clipPath>
					<polygon clip-path="url(#SVGID_22_)" fill="#202121" points="551.082,689.533 556.185,671.656 567.908,675.445 
						556.273,691.186 					"/>
				</g>
			</g>
		</g>
	</g>
	<g opacity="0.31">
		<g>
			<g>
				<g>
					<defs>
						
							<rect id="SVGID_23_" x="535.16" y="735.352" transform="matrix(0.707 -0.7072 0.7072 0.707 -366.1661 598.2029)" width="7.515" height="11.387"/>
					</defs>
					<clipPath id="SVGID_24_">
						<use xlink:href="#SVGID_23_"  overflow="visible"/>
					</clipPath>
					<polygon clip-path="url(#SVGID_24_)" fill="#202121" points="535.913,736 534.006,741.448 543.494,744.521 540.753,737.569 
											"/>
				</g>
			</g>
		</g>
	</g>
</g>
<g>
	
		<rect x="76.959" y="208.428" transform="matrix(0.4549 0.8906 -0.8906 0.4549 229.0423 44.1314)" fill="#02172D" width="3.028" height="1.453"/>
	
		<rect x="76.959" y="208.428" transform="matrix(0.4549 0.8906 -0.8906 0.4549 229.0423 44.1314)" fill="none" stroke="#EEEEEE" stroke-miterlimit="10" width="3.028" height="1.453"/>
	
		<rect x="55.993" y="194.166" transform="matrix(0.8906 -0.4547 0.4547 0.8906 -82.2016 47.9921)" fill="#02172D" width="5.362" height="1.454"/>
	
		<rect x="55.993" y="194.166" transform="matrix(0.8906 -0.4547 0.4547 0.8906 -82.2016 47.9921)" fill="none" stroke="#EEEEEE" stroke-miterlimit="10" width="5.362" height="1.454"/>
	<polygon fill="#DDBC31" points="46.876,168.741 53.73,171.719 61.849,167.571 62.947,160.533 	"/>
	
		<rect x="75.788" y="184.058" transform="matrix(-0.8906 0.4548 -0.4548 -0.8906 232.3488 313.6826)" fill="#02172D" width="5.32" height="1.455"/>
	
		<rect x="75.788" y="184.058" transform="matrix(-0.8906 0.4548 -0.4548 -0.8906 232.3488 313.6826)" fill="none" stroke="#EEEEEE" stroke-miterlimit="10" width="5.32" height="1.455"/>
	
		<rect x="84.035" y="162.041" transform="matrix(0.4548 0.8906 -0.8906 0.4548 205.9409 14.1615)" fill="#13718E" width="14.739" height="26.484"/>
	
		<rect x="84.035" y="162.041" transform="matrix(0.4548 0.8906 -0.8906 0.4548 205.9409 14.1615)" fill="none" stroke="#E1E5E5" stroke-width="0.75" stroke-miterlimit="10" width="14.739" height="26.484"/>
	
		<rect x="35.956" y="186.592" transform="matrix(0.4547 0.8906 -0.8906 0.4547 201.6033 70.3772)" fill="#13718E" width="14.739" height="26.484"/>
	
		<rect x="35.956" y="186.592" transform="matrix(0.4547 0.8906 -0.8906 0.4547 201.6033 70.3772)" fill="none" stroke="#E1E5E5" stroke-width="0.75" stroke-miterlimit="10" width="14.739" height="26.484"/>
	
		<rect x="48.01" y="180.544" transform="matrix(0.4548 0.8906 -0.8906 0.4548 206.438 42.484)" fill="#E0E2E2" width="41.02" height="18.617"/>
	<polygon fill="#EF643A" points="78.538,234.799 75.554,215.49 86.022,210.143 99.26,224.216 	"/>
	<polygon fill="#E0E2E2" points="70.099,218.276 68.791,215.712 89.512,205.13 90.821,207.692 86.022,210.143 75.554,215.49 	"/>
	<line fill="none" x1="101.212" y1="165.323" x2="77.641" y2="177.402"/>
	
		<line fill="none" stroke="#E1E5E5" stroke-width="0.5" stroke-miterlimit="10" x1="101.212" y1="165.323" x2="77.641" y2="177.402"/>
	<line fill="none" x1="102.799" y1="168.432" x2="79.134" y2="180.195"/>
	
		<line fill="none" stroke="#E1E5E5" stroke-width="0.5" stroke-miterlimit="10" x1="102.799" y1="168.432" x2="79.134" y2="180.195"/>
	<line fill="none" x1="104.295" y1="171.362" x2="80.619" y2="183.233"/>
	
		<line fill="none" stroke="#E1E5E5" stroke-width="0.5" stroke-miterlimit="10" x1="104.295" y1="171.362" x2="80.619" y2="183.233"/>
	<line fill="none" x1="105.65" y1="173.879" x2="81.973" y2="185.748"/>
	
		<line fill="none" stroke="#E1E5E5" stroke-width="0.5" stroke-miterlimit="10" x1="105.65" y1="173.879" x2="81.973" y2="185.748"/>
	<line fill="none" x1="52.847" y1="189.7" x2="29.277" y2="201.778"/>
	<line fill="none" stroke="#E1E5E5" stroke-width="0.5" stroke-miterlimit="10" x1="52.847" y1="189.7" x2="29.277" y2="201.778"/>
	<line fill="none" x1="54.435" y1="192.809" x2="30.77" y2="204.572"/>
	<line fill="none" stroke="#E1E5E5" stroke-width="0.5" stroke-miterlimit="10" x1="54.435" y1="192.809" x2="30.77" y2="204.572"/>
	<line fill="none" x1="55.931" y1="195.738" x2="32.255" y2="207.61"/>
	<line fill="none" stroke="#E1E5E5" stroke-width="0.5" stroke-miterlimit="10" x1="55.931" y1="195.738" x2="32.255" y2="207.61"/>
	<line fill="none" x1="57.286" y1="198.254" x2="33.608" y2="210.123"/>
	
		<line fill="none" stroke="#E1E5E5" stroke-width="0.5" stroke-miterlimit="10" x1="57.286" y1="198.254" x2="33.608" y2="210.123"/>
	<g opacity="0.31">
		<g>
			<g>
				<g>
					<defs>
						
							<rect id="SVGID_25_" x="43.979" y="178.535" transform="matrix(0.8101 0.5863 -0.5863 0.8101 124.7896 -1.2658)" width="40.74" height="26.893"/>
					</defs>
					<clipPath id="SVGID_26_">
						<use xlink:href="#SVGID_25_"  overflow="visible"/>
					</clipPath>
					
						<rect x="43.842" y="187.357" transform="matrix(0.4548 0.8906 -0.8906 0.4548 206.068 47.3637)" clip-path="url(#SVGID_26_)" fill="#202121" width="41.019" height="9.249"/>
				</g>
			</g>
		</g>
	</g>
	<path fill="#C69720" d="M53.73,171.719l-6.854-2.978L53.73,171.719z"/>
	<g opacity="0.31">
		<g>
			<g>
				<g>
					<defs>
						<rect id="SVGID_27_" x="28.256" y="199.349" width="30.374" height="13.154"/>
					</defs>
					<clipPath id="SVGID_28_">
						<use xlink:href="#SVGID_27_"  overflow="visible"/>
					</clipPath>
					<polygon clip-path="url(#SVGID_28_)" fill="#202121" points="58.628,200.316 28.256,199.349 34.833,212.503 					"/>
				</g>
			</g>
		</g>
	</g>
	<g opacity="0.31">
		<g>
			<g>
				<g>
					<defs>
						<rect id="SVGID_29_" x="76.233" y="174.78" width="30.374" height="13.155"/>
					</defs>
					<clipPath id="SVGID_30_">
						<use xlink:href="#SVGID_29_"  overflow="visible"/>
					</clipPath>
					<polygon clip-path="url(#SVGID_30_)" fill="#202121" points="106.605,175.747 76.233,174.78 82.81,187.934 					"/>
				</g>
			</g>
		</g>
	</g>
	<g opacity="0.31">
		<g>
			<g>
				<g>
					<defs>
						<rect id="SVGID_31_" x="68.792" y="210.462" width="11.585" height="7.813"/>
					</defs>
					<clipPath id="SVGID_32_">
						<use xlink:href="#SVGID_31_"  overflow="visible"/>
					</clipPath>
					<polygon clip-path="url(#SVGID_32_)" fill="#202121" points="70.099,218.276 68.791,215.712 79.068,210.464 80.378,213.027 
						77.996,214.241 72.803,216.894 					"/>
				</g>
			</g>
		</g>
	</g>
	<g opacity="0.31">
		<g>
			<g>
				<g>
					<defs>
						<rect id="SVGID_33_" x="75.552" y="212.988" width="13.873" height="21.859"/>
					</defs>
					<clipPath id="SVGID_34_">
						<use xlink:href="#SVGID_33_"  overflow="visible"/>
					</clipPath>
					<polygon clip-path="url(#SVGID_34_)" fill="#202121" points="80.393,212.988 89.426,229.237 78.458,234.848 75.554,215.49 
											"/>
				</g>
			</g>
		</g>
	</g>
	<g opacity="0.31">
		<g>
			<g>
				<g>
					<defs>
						<rect id="SVGID_35_" x="46.876" y="164.205" width="11.387" height="7.515"/>
					</defs>
					<clipPath id="SVGID_36_">
						<use xlink:href="#SVGID_35_"  overflow="visible"/>
					</clipPath>
					<polygon clip-path="url(#SVGID_36_)" fill="#202121" points="58.262,169.405 55.758,164.204 46.876,168.741 53.73,171.719 
											"/>
				</g>
			</g>
		</g>
	</g>
</g>
</svg>
