<?xml version="1.0"?>
<svg xmlns="http://www.w3.org/2000/svg" xmlns:xlink="http://www.w3.org/1999/xlink" version="1.1" id="Capa_1" x="0px" y="0px" viewBox="0 0 512.01 512.01" style="enable-background:new 0 0 512.01 512.01;" xml:space="preserve" width="512px" height="512px"><g><g>
	<g>
		<rect x="388.743" y="419.281" transform="matrix(0.7071 -0.7071 0.7071 0.7071 -207.8455 426.7769)" width="45" height="89.999" data-original="#000000" class="active-path" data-old_color="#00E5FF" fill="#00A8FF"/>
	</g>
</g><g>
	<g>
		<rect x="441.778" y="366.241" transform="matrix(0.7071 -0.7071 0.7071 0.7071 -154.8071 448.7433)" width="45" height="89.999" data-original="#000000" class="active-path" data-old_color="#00E5FF" fill="#00A8FF"/>
	</g>
</g><g>
	<g>
		<rect x="303.887" y="334.429" transform="matrix(0.7071 -0.7071 0.7071 0.7071 -172.6997 341.9218)" width="45" height="89.999" data-original="#000000" class="active-path" data-old_color="#00E5FF" fill="#00A8FF"/>
	</g>
</g><g>
	<g>
		<rect x="356.921" y="281.393" transform="matrix(0.7071 -0.7071 0.7071 0.7071 -119.6644 363.8894)" width="45" height="89.999" data-original="#000000" class="active-path" data-old_color="#00E5FF" fill="#00A8FF"/>
	</g>
</g><g>
	<g>
		<rect x="25.238" y="55.764" transform="matrix(0.7071 -0.7071 0.7071 0.7071 -57.2686 63.2691)" width="45" height="89.999" data-original="#000000" class="active-path" data-old_color="#00E5FF" fill="#00A8FF"/>
	</g>
</g><g>
	<g>
		<rect x="163.127" y="87.589" transform="matrix(0.7071 -0.7071 0.7071 0.7071 -39.3853 170.0917)" width="45" height="89.999" data-original="#000000" class="active-path" data-old_color="#00E5FF" fill="#00A8FF"/>
	</g>
</g><g>
	<g>
		<rect x="78.266" y="2.733" transform="matrix(0.7071 -0.7071 0.7071 0.7071 -4.2387 85.2326)" width="45" height="89.999" data-original="#000000" class="active-path" data-old_color="#00E5FF" fill="#00A8FF"/>
	</g>
</g><g>
	<g>
		<rect x="110.091" y="140.625" transform="matrix(0.7071 -0.7071 0.7071 0.7071 -92.4215 148.1238)" width="45" height="89.999" data-original="#000000" class="active-path" data-old_color="#00E5FF" fill="#00A8FF"/>
	</g>
</g><g>
	<g>
		<path d="M149.94,319.643l-25.325,25.326c8.608,5.089,16.632,11.291,23.884,18.542c7.322,7.322,13.498,15.364,18.529,23.898    l25.339-25.34L149.94,319.643z" data-original="#000000" class="active-path" data-old_color="#00E5FF" fill="#00A8FF"/>
	</g>
</g><g>
	<g>
		<path d="M372.779,139.23c-7.369-7.369-13.404-15.573-18.12-24.306l-35.013,35.013l42.427,42.426l34.982-34.982    C388.242,152.599,380.068,146.519,372.779,139.23z" data-original="#000000" class="active-path" data-old_color="#00E5FF" fill="#00A8FF"/>
	</g>
</g><g>
	<g>
		
			<rect x="166.002" y="193.964" transform="matrix(0.7071 -0.7071 0.7071 0.7071 -106.0409 256.0017)" width="179.998" height="124.079" data-original="#000000" class="active-path" data-old_color="#00E5FF" fill="#00A8FF"/>
	</g>
</g><g>
	<g>
		<rect x="461.363" y="12.187" transform="matrix(0.7071 -0.7071 0.7071 0.7071 122.774 350.7759)" width="46.896" height="30" data-original="#000000" class="active-path" data-old_color="#00E5FF" fill="#00A8FF"/>
	</g>
</g><g>
	<g>
		<rect x="4.019" y="470.491" transform="matrix(0.7071 -0.7071 0.7071 0.7071 -335.5269 160.9486)" width="45" height="30" data-original="#000000" class="active-path" data-old_color="#00E5FF" fill="#00A8FF"/>
	</g>
</g><g>
	<g>
		<path d="M127.285,384.725c-35.091-35.091-92.188-35.091-127.279,0l127.279,127.279    C162.376,476.913,162.376,419.816,127.285,384.725z" data-original="#000000" class="active-path" data-old_color="#00E5FF" fill="#00A8FF"/>
	</g>
</g><g>
	<g>
		<path d="M393.992,11.952c-29.289,29.289-29.289,76.777,0,106.066c29.29,29.289,76.777,29.289,106.066,0L393.992,11.952z" data-original="#000000" class="active-path" data-old_color="#00E5FF" fill="#00A8FF"/>
	</g>
</g></g> </svg>
